<?xml version="1.0" encoding="UTF-8" standalone="no"?>
<!-- Created with Inkscape (http://www.inkscape.org/) -->

<svg
   version="1.1"
   id="svg1"
   width="556.44305"
   height="556.44415"
   viewBox="0 0 556.44302 556.44415"
   sodipodi:docname="logo.svg"
   inkscape:version="1.2.2 (732a01da63, 2022-12-09)"
   xml:space="preserve"
   xmlns:inkscape="http://www.inkscape.org/namespaces/inkscape"
   xmlns:sodipodi="http://sodipodi.sourceforge.net/DTD/sodipodi-0.dtd"
   xmlns="http://www.w3.org/2000/svg"
   xmlns:svg="http://www.w3.org/2000/svg"><defs
     id="defs1" /><sodipodi:namedview
     id="namedview1"
     pagecolor="#ffffff"
     bordercolor="#cccccc"
     borderopacity="1"
     inkscape:showpageshadow="0"
     inkscape:pageopacity="1"
     inkscape:pagecheckerboard="0"
     inkscape:deskcolor="#d1d1d1"
     showgrid="false"
     inkscape:zoom="0.65625001"
     inkscape:cx="281.14285"
     inkscape:cy="236.19047"
     inkscape:window-width="1366"
     inkscape:window-height="705"
     inkscape:window-x="-8"
     inkscape:window-y="32"
     inkscape:window-maximized="1"
     inkscape:current-layer="g1" /><g
     inkscape:groupmode="layer"
     inkscape:label="Image"
     id="g1"
     transform="translate(6366.3591,-4566.2046)"><path
       style="fill:#1fc916;fill-opacity:1;stroke-width:0.986884"
       d="m -5845.9528,4885.098 c -0.289,-1.033 -0.5254,-3.3129 -0.5254,-5.0666 0,-5.666 -5.0644,-17.5202 -10.9037,-25.5223 -7.6564,-10.4921 -23.5477,-23.8197 -24.8788,-20.8652 -0.2657,0.5899 0.2826,3.8361 1.2184,7.2138 0.9359,3.3778 1.7018,6.2715 1.702,6.4304 3e-4,0.1589 -0.7828,0.2889 -1.7401,0.2889 -2.31,0 -4.3711,-1.593 -10.7986,-8.3472 -6.9396,-7.292 -16.6742,-13.9687 -25.9832,-17.8211 -6.1112,-2.529 -9.0869,-3.069 -17.0897,-3.1013 -13.9691,-0.056 -21.9125,3.9104 -38.9446,19.4479 l -6.5043,5.9335 -7.82,-1.4715 c -9.4888,-1.7855 -38.4429,-6.4675 -59.5651,-9.632 -9.3688,-1.4036 -16.2426,-2.9798 -17.3549,-3.9795 -1.7532,-1.5758 -4.4005,-8.311 -3.6639,-9.3215 0.5102,-0.6998 10.2403,-2.6078 17.945,-3.5189 8.8563,-1.0473 7.03,-2.3418 -7.3189,-5.1878 -15.1811,-3.011 -32.156,-5.3305 -59.1831,-8.0872 -22.7718,-2.3227 -25.7138,-2.8392 -25.7138,-4.5144 0,-2.6559 7.1761,-8.1741 10.7014,-8.2291 2.1688,-0.034 2.2372,-0.1634 0.8489,-1.6079 -1.7609,-1.8321 -9.7602,-3.5605 -27.2461,-5.8873 -16.8781,-2.2459 -22.4244,-2.1333 -29.3836,0.5968 -3.2411,1.2714 -7.098,2.3117 -8.5709,2.3117 -2.9081,0 -20.0033,-8.0005 -19.2635,-9.0153 0.2488,-0.3413 4.4668,-3.0672 9.3734,-6.0575 8.7478,-5.3313 8.8635,-5.4517 5.9607,-6.1988 -5.4372,-1.3992 -40.3766,3.4141 -62.8931,8.6643 -23.597,5.5021 -46.0305,14.4188 -61.8638,24.5892 -4.5862,2.9459 -8.426,5.3561 -8.5329,5.3561 -0.8366,0 -8.8281,-30.1184 -8.8281,-33.2714 0,-1.466 7.0759,-11.104 9.7257,-13.2473 0.6248,-0.5053 6.5891,2.72 14.418,7.7969 10.7313,6.9591 14.1339,8.6598 17.3343,8.664 2.2335,0 16.2936,-4.2837 32.019,-9.7619 44.7895,-15.6032 75.3231,-23.5674 111.8763,-29.1811 16.6561,-2.5579 69.5258,-2.9132 83.8393,-0.5634 37.4384,6.1463 68.1657,18.5543 93.4405,37.7324 11.93,9.0523 18.2439,12.3724 36.3208,19.0985 36.7136,13.6605 49.8974,19.4353 64.5064,28.2549 26.8808,16.2284 38.0356,35.3366 35.376,60.5988 -0.8481,8.0562 -1.2433,9.3135 -2.036,6.4794 z m -121.3862,-75.8694 c 7.6174,-4.5627 13.8498,-8.6887 13.8498,-9.169 0,-0.4803 -0.8531,-1.243 -1.8959,-1.695 -1.0427,-0.452 -10.8064,-6.6604 -21.6971,-13.7965 -21.5366,-14.1119 -30.8487,-19.2099 -45.0793,-24.6791 -9.2526,-3.556 -27.2915,-8.7863 -27.7861,-8.0565 -1.5497,2.2865 -21.5064,40.6851 -21.5064,41.3805 0,0.5144 6.3512,2.579 14.1137,4.588 7.7625,2.009 27.9534,7.2153 44.8687,11.5694 16.9153,4.3542 30.8738,7.9701 31.0189,8.0354 0.145,0.065 6.4962,-3.6144 14.1137,-8.1772 z m -117.0617,-18.8171 c 3.8986,-3.7458 23.058,-37.4904 23.058,-40.6109 0,-1.5291 -10.0725,-4.3357 -22.3291,-6.2216 -9.9103,-1.5249 -43.5674,-1.5175 -52.6849,0.012 -9.0007,1.5095 -17.3862,4.6121 -28.3315,10.4825 -9.578,5.137 -13.8748,8.8895 -11.9079,10.3994 0.6591,0.5061 7.386,1.9948 14.9486,3.3084 21.7284,3.7742 39.0054,9.9419 48.3241,17.2513 4.2992,3.3722 10.9619,5.5109 19.5404,6.2725 2.3171,0.2057 4.9818,0.4677 5.9214,0.5823 0.9396,0.1146 2.497,-0.5494 3.4609,-1.4755 z m -233.9912,93.2155 c -6.1737,-3.441 -9.1,-7.1289 -11.9436,-15.0526 -2.3102,-6.4375 -2.651,-8.5903 -2.6575,-16.7915 -0.013,-15.986 4.7585,-25.9721 17.1055,-35.8004 12.9157,-10.281 24.2093,-14.5406 40.9442,-15.4429 25.2696,-1.3625 52.6062,7.9731 89.5278,30.5742 4.7506,2.9081 8.4956,5.4822 8.3221,5.7201 -0.1735,0.238 -3.1125,-1.0868 -6.5311,-2.944 -25.1114,-13.6424 -47.7482,-19.2214 -77.8371,-19.1836 -22.2687,0.028 -31.3317,1.9553 -42.0606,8.9447 -8.0423,5.2392 -11.5655,9.7081 -14.34,18.1889 -2.1377,6.5344 -2.2314,7.4488 -1.3057,12.7421 2.4222,13.8506 9.9472,22.415 22.7381,25.8787 5.458,1.478 5.4682,1.4881 2.9492,2.9197 -1.3903,0.7901 -6.6988,1.6511 -11.7965,1.9134 -7.6425,0.3933 -9.9435,0.1008 -13.1148,-1.6668 z"
       id="path683" /><path
       d="m -6219.5227,4896.1865 13.9255,0.4944 c -0.9174,9.8885 -3.4186,13.3465 -7.5034,18.7402 -4.063,5.3937 -9.3711,8.0906 -15.9243,8.0906 -6.6624,0 -12.2436,-3.0565 -16.7434,-9.1693 -4.4781,-6.1429 -6.7171,-13.754 -6.7171,-22.8335 0,-9.1393 2.2827,-16.8254 6.8481,-23.0581 4.5873,-6.2328 10.234,-9.3491 16.9401,-9.3491 6.5969,0 12.1015,3.0564 16.514,9.1693 3.0582,4.2251 5.2208,7.0309 6.4877,14.5821 l -14.2532,1.3035 c -1.5946,-6.7122 -4.62,-6.986 -9.0762,-6.986 -2.8397,0 -5.1879,1.3485 -7.0447,4.0453 -1.8349,2.6969 -2.7523,6.1279 -2.7523,10.293 0,4.0154 0.9065,7.3415 2.7195,9.9784 1.8131,2.607 4.1067,3.9105 6.8809,3.9105 2.8179,0 5.0569,-1.1537 6.717,-3.461 1.682,-2.3073 2.6759,-1.4353 2.9818,-5.7503 z"
       id="path289"
       sodipodi:nodetypes="cccscscscccscscscc"
       style="font-size:79.6396px;font-family:'Bauhaus 93';-inkscape-font-specification:'Bauhaus 93, ';letter-spacing:10px;fill:#1fc916;stroke-width:6.5496;fill-opacity:1" /><path
       d="m -6168.6423,4899.2849 -9.8522,8.0906 v 14.608 h -13.303 v -39.0146 c 0,-7.5512 1.4963,-13.4094 4.4889,-17.5746 3.0145,-4.1951 7.2413,-6.2926 12.6805,-6.2926 5.2425,0 9.1199,1.9028 11.6319,5.7083 2.5121,3.7756 3.7681,9.6188 3.7681,17.5296 v 39.6439 h -13.303 v -38.4303 c 0,-2.3972 -0.2075,-4.0603 -0.6225,-4.9892 -0.4151,-0.9289 -1.1578,-1.3934 -2.2281,-1.3934 -2.0752,0 -3.1128,2.1276 -3.1128,6.3826 v 7.6411 z"
       id="path291"
       sodipodi:nodetypes="ccccscscsccsssscc"
       style="font-size:79.6396px;font-family:'Bauhaus 93';-inkscape-font-specification:'Bauhaus 93, ';letter-spacing:10px;fill:#1fc916;stroke-width:6.5496;fill-opacity:1" /><path
       d="m -6129.4386,4877.1257 v 44.8578 h -13.303 v -61.3536 h 17.0711 c 5.1989,0 9.2291,1.7679 12.0907,5.3038 3.1892,3.9554 4.7838,8.9746 4.7838,15.0575 0,6.2028 -1.9769,11.4317 -5.9306,15.6867 l 7.6672,25.3056 h -13.9583 l -6.4549,-19.777 -3.7451,-8.4902 4.7936,-7.2865 c 2.796,0 4.194,-1.648 4.194,-4.9442 0,-2.9066 -1.6164,-4.3599 -4.8493,-4.3599 z"
       id="path293"
       sodipodi:nodetypes="ccccscscccccsssc"
       style="font-size:79.6396px;font-family:'Bauhaus 93';-inkscape-font-specification:'Bauhaus 93, ';letter-spacing:10px;fill:#1fc916;stroke-width:6.5496;fill-opacity:1" /><path
       d="m -6044.5062,4890.6549 -11.1657,8.0906 v 23.238 h -13.303 v -61.3536 h 13.303 v 21.9345 z m 8.1007,-30.025 v 61.3536 h -13.303 v -61.3536 z"
       id="path295"
       sodipodi:nodetypes="ccccccccccccc"
       style="font-size:79.6396px;font-family:'Bauhaus 93';-inkscape-font-specification:'Bauhaus 93, ';letter-spacing:10px;fill:#1fc916;stroke-width:6.5496;fill-opacity:1" /><path
       d="m -6005.7313,4860.6299 v 61.3536 h -13.303 v -61.3536 z"
       id="path297"
       style="font-size:79.6396px;font-family:'Bauhaus 93';-inkscape-font-specification:'Bauhaus 93, ';letter-spacing:10px;fill:#1fc916;stroke-width:6.5496;fill-opacity:1" /><path
       d="m -5956.2166,4860.6299 -19.4958,64.8595 -19.3647,-64.8595 h 15.4 l 4.0957,19.1477 4.5217,-19.1477 z"
       id="path299"
       style="font-size:79.6396px;font-family:'Bauhaus 93';-inkscape-font-specification:'Bauhaus 93, ';letter-spacing:10px;fill:#1fc916;stroke-width:6.5496;fill-opacity:1" /><path
       d="m -5918.8645,4891.3292 -10.8392,6.832 c -1.0719,0.6756 -2.0206,0.2397 -2.523,0.7192 -0.4806,0.4794 -0.7209,1.2885 -0.7209,2.4271 0,1.2885 0.2512,2.1425 0.7536,2.562 0.5024,0.3896 1.5291,0.5844 3.08,0.5844 h 8.9452 v 17.5296 h -10.4524 c -4.9149,0 -8.6721,-1.6032 -11.2715,-4.8094 -2.5994,-3.2363 -3.8992,-7.8959 -3.8992,-13.9788 v -24.047 c 0,-5.8731 1.2233,-10.4278 3.6698,-13.6641 2.4684,-3.2362 5.9307,-4.8543 10.3869,-4.8543 h 11.5664 v 17.6195 h -8.4864 c -2.2937,0 -3.4405,1.0188 -3.4405,3.0564 0,1.1986 0.2731,2.0377 0.8192,2.5171 0.5461,0.4495 1.5181,0.6742 2.9162,0.6742 z"
       id="path301"
       sodipodi:nodetypes="cscscsccscsscsccsscsc"
       style="font-size:79.6396px;font-family:'Bauhaus 93';-inkscape-font-specification:'Bauhaus 93, ';letter-spacing:10px;fill:#1fc916;stroke-width:6.5496;fill-opacity:1" /></g></svg>
