<?xml version="1.0" encoding="UTF-8" standalone="no"?>
<!-- Uploaded to: SVG Repo, www.svgrepo.com, Generator: SVG Repo Mixer Tools -->

<svg
   width="800px"
   height="800px"
   viewBox="0 0 1000 1000"
   id="Layer_2"
   version="1.1"
   xml:space="preserve"
   sodipodi:docname="bus.svg"
   inkscape:version="1.2.2 (732a01da63, 2022-12-09)"
   xmlns:inkscape="http://www.inkscape.org/namespaces/inkscape"
   xmlns:sodipodi="http://sodipodi.sourceforge.net/DTD/sodipodi-0.dtd"
   xmlns="http://www.w3.org/2000/svg"
   xmlns:svg="http://www.w3.org/2000/svg"><defs
     id="defs11" /><sodipodi:namedview
     id="namedview9"
     pagecolor="#505050"
     bordercolor="#eeeeee"
     borderopacity="1"
     inkscape:showpageshadow="0"
     inkscape:pageopacity="0"
     inkscape:pagecheckerboard="0"
     inkscape:deskcolor="#505050"
     showgrid="false"
     inkscape:zoom="0.328125"
     inkscape:cx="734.47619"
     inkscape:cy="320"
     inkscape:window-width="1366"
     inkscape:window-height="705"
     inkscape:window-x="-8"
     inkscape:window-y="-8"
     inkscape:window-maximized="1"
     inkscape:current-layer="Layer_2" /><path
     d="M 986.49422,649.42272 V 357.20159 c 0,-17.12791 -15.4224,-31.01012 -34.4506,-31.01012 h -28.0619 v -8.55756 c 0,-17.29936 -15.58016,-31.32357 -34.79882,-31.32357 H 516.14464 c -19.21864,0 -34.7988,14.02421 -34.7988,31.32357 v 8.55756 H 428.2849 c -12.70773,0 -25.33303,1.32796 -37.61011,3.94678 -12.27708,2.60604 -24.22016,6.49014 -35.59188,11.61521 -17.63534,7.93069 -33.51823,18.65674 -46.90819,31.67411 l -74.0235,71.96848 c -13.48802,13.10564 -30.16257,23.22913 -48.71747,29.5811 L 88.777653,508.04191 C 70.556751,514.2685 55.302061,525.9835 45.586141,541.18216 l -14.266882,22.33998 c -8.449554,13.20672 -12.277081,28.4041 -11.010715,43.60276 l 3.200739,38.18855 c -2.546952,1.27808 -4.87218,2.88238 -6.931618,4.73615 -5.859976,5.27476 -9.4785697,12.55426 -9.4785697,20.59751 0,16.08781 14.4900237,29.13076 32.3627197,29.13076 h 72.380495 c 6.37448,38.06447 42.87172,67.24512 86.94017,67.24512 44.06844,0 80.56569,-29.18065 86.94017,-67.24512 h 450.37621 c 6.37448,38.06447 42.87172,67.24512 86.94016,67.24512 44.05424,0 80.55148,-29.18065 86.92596,-67.24512 h 54.38273 c 8.93563,0 17.02276,-3.25721 22.88415,-8.53197 5.85996,-5.27475 9.47857,-12.55425 9.47857,-20.59751 10e-4,-8.38357 -3.92417,-15.92533 -10.21621,-21.22567 z m -883.68703,-80.42624 -4.48133,30.88475 c -1.057433,7.32939 -7.990468,12.81779 -16.202672,12.81779 h -21.49129 c -4.523962,0 -8.60163,-1.6542 -11.566437,-4.31013 -2.950598,-2.66872 -4.788323,-6.34045 -4.788323,-10.41261 0,-2.66872 0.807292,-5.27476 2.323811,-7.56735 l 21.11606,-31.66132 c 3.479321,-5.23637 10.202006,-7.99336 16.883483,-6.91616 l 4.85796,0.77658 c 8.603059,1.37913 14.475818,8.59593 13.348738,16.38845 z m 147.44865,130.78139 c -5.9012,20.6231 -26.75291,35.92156 -51.47336,35.92156 -24.72045,0 -45.57217,-15.29846 -51.47336,-35.92156 -1.07164,-3.80861 -1.65722,-7.7925 -1.65722,-11.90305 0,-0.62689 0.0142,-1.25249 0.0412,-1.87936 0.93237,-21.47515 17.67798,-39.36683 40.00498,-44.47912 4.18997,-0.95183 8.57463,-1.46613 13.08438,-1.46613 4.50975,0 8.89441,0.51301 13.08438,1.46613 22.327,5.11229 39.07119,23.00397 40.00498,44.47912 0.0285,0.62687 0.0412,1.25247 0.0412,1.87936 -10e-4,4.11055 -0.58558,8.09444 -1.65722,11.90305 z M 426.30789,565.87742 c -2.18593,1.96763 -5.20618,3.18302 -8.53198,3.18302 h -37.10983 c -6.66725,0 -12.06816,-4.86153 -12.06816,-10.86294 0,-3.00776 1.35023,-5.71357 3.53617,-7.67994 2.18594,-1.96763 5.20618,-3.18301 8.53199,-3.18301 h 37.10983 c 6.66725,0 12.06814,4.86152 12.06814,10.86295 0,3.00646 -1.35022,5.71229 -3.53616,7.67992 z m 36.48303,-194.3049 -16.81383,82.02928 c -3.20216,15.66178 -13.00052,29.61948 -27.33846,38.9408 -13.41839,8.74562 -29.89821,12.82931 -46.39367,11.50262 l -144.27491,0.18807 c -3.52196,0.0128 -5.54019,-2.50624 -5.54019,-5.02401 0,-1.87935 1.12708,-3.75872 3.57738,-4.59798 5.01004,-1.71688 9.52121,-4.46108 13.16823,-8.00615 l 94.527,-91.89049 c 12.19323,-11.85317 26.82255,-21.1873 43.37344,-27.65184 16.56369,-6.47734 34.52023,-9.54778 52.58764,-9.54778 h 20.12686 c 8.26763,0 14.50424,6.74088 13.00051,14.05748 z M 627.97297,494.1968 c 0,6.56561 -5.91539,11.90306 -13.20944,11.90306 h -99.6351 c -7.30827,0 -13.22367,-5.33745 -13.22367,-11.90306 v -97.00149 c 0,-6.5784 5.9154,-11.90306 13.22367,-11.90306 h 99.6351 c 7.29405,0 13.20944,5.32466 13.20944,11.90306 z m 40.71421,11.90306 c -7.29404,0 -13.20945,-5.33745 -13.20945,-11.90306 v -97.00149 c 0,-6.5784 5.91541,-11.90306 13.20945,-11.90306 h 99.63511 c 7.30827,0 13.22366,5.32466 13.22366,11.90306 v 97.00149 c 0,6.56561 -5.91539,11.90306 -13.22366,11.90306 z m 205.81241,193.67801 c -5.90261,20.6231 -26.73869,35.92156 -51.46057,35.92156 -24.73466,0 -45.57217,-15.29846 -51.47477,-35.92156 -1.07165,-3.80861 -1.6558,-7.7925 -1.6558,-11.90305 0,-0.62689 0.0142,-1.25249 0.0412,-1.87936 0.93236,-21.47515 17.66376,-39.36683 40.00498,-44.47912 4.18996,-0.95183 8.57463,-1.46613 13.08437,-1.46613 4.50975,0 8.89442,0.51301 13.08438,1.46613 22.32701,5.11229 39.0584,23.00397 39.99077,44.47912 0.0285,0.62687 0.0412,1.25247 0.0412,1.87936 0,4.11055 -0.58415,8.09444 -1.6558,11.90305 z M 822.26016,506.09986 c -7.29404,0 -13.20945,-5.33745 -13.20945,-11.90306 v -97.00149 c 0,-6.5784 5.91541,-11.90306 13.20945,-11.90306 h 99.63511 c 7.30825,0 13.22366,5.32466 13.22366,11.90306 v 97.00149 c 0,6.56561 -5.91541,11.90306 -13.22366,11.90306 z m 136.52178,94.59631 c 0,6.6283 -5.97082,12.00285 -13.33451,12.00285 h -1.86474 c -7.36369,0 -13.33451,-5.37455 -13.33451,-12.00285 v -49.91634 c 0,-6.62831 5.97082,-12.00285 13.33451,-12.00285 h 1.86474 c 7.36369,0 13.33451,5.37582 13.33451,12.00285 z"
     style="fill:#ffffff;stroke-width:1.34845"
     id="path2" /><path
     d="m 198.78248,672.21303 c -8.89442,0 -16.2439,6.02702 -17.27433,13.78243 -0.0839,0.61409 -0.12508,1.23968 -0.12508,1.87936 0,4.76174 2.36645,9.03348 6.09733,11.90305 3.03445,2.34377 6.98847,3.75874 11.30208,3.75874 4.31503,0 8.26762,-1.41625 11.30208,-3.75874 3.73088,-2.86957 6.09733,-7.14131 6.09733,-11.90305 0,-0.63968 -0.0412,-1.26527 -0.12508,-1.87936 -1.03185,-7.75541 -8.37992,-13.78243 -17.27433,-13.78243 z"
     style="fill:#ffffff;stroke-width:1.34845"
     id="path4" /><path
     d="m 823.03902,672.21303 c -8.90863,0 -16.24389,6.02702 -17.27432,13.78243 -0.0839,0.61409 -0.12508,1.23968 -0.12508,1.87936 0,4.76174 2.36645,9.03348 6.09733,11.90305 3.03444,2.34377 6.97284,3.75874 11.30207,3.75874 4.31503,0 8.26764,-1.41625 11.30208,-3.75874 3.73089,-2.86957 6.09732,-7.14131 6.09732,-11.90305 0,-0.63968 -0.0412,-1.26527 -0.12506,-1.87936 -1.03043,-7.75541 -8.37992,-13.78243 -17.27434,-13.78243 z"
     style="fill:#ffffff;stroke-width:1.34845"
     id="path6" /></svg>
