<?xml version="1.0" encoding="UTF-8" standalone="no"?>
<!-- Created with Inkscape (http://www.inkscape.org/) -->

<svg
   version="1.1"
   id="svg1"
   width="388.92322"
   height="110.2466"
   viewBox="0 0 388.92321 110.2466"
   sodipodi:docname="logo-footer.svg"
   inkscape:version="1.2.2 (732a01da63, 2022-12-09)"
   xml:space="preserve"
   xmlns:inkscape="http://www.inkscape.org/namespaces/inkscape"
   xmlns:sodipodi="http://sodipodi.sourceforge.net/DTD/sodipodi-0.dtd"
   xmlns="http://www.w3.org/2000/svg"
   xmlns:svg="http://www.w3.org/2000/svg"><defs
     id="defs1"><filter
       inkscape:collect="always"
       style="color-interpolation-filters:sRGB"
       id="filter4435"
       x="-0.035128124"
       y="-0.40687003"
       width="1.0702562"
       height="1.8137401"><feGaussianBlur
         inkscape:collect="always"
         stdDeviation="3.9269858"
         id="feGaussianBlur4433" /></filter></defs><sodipodi:namedview
     id="namedview1"
     pagecolor="#212121"
     bordercolor="#cccccc"
     borderopacity="1"
     inkscape:showpageshadow="0"
     inkscape:pageopacity="1"
     inkscape:pagecheckerboard="0"
     inkscape:deskcolor="#d1d1d1"
     showgrid="false"
     inkscape:zoom="1.3125"
     inkscape:cx="247.61905"
     inkscape:cy="-48"
     inkscape:window-width="1366"
     inkscape:window-height="705"
     inkscape:window-x="-8"
     inkscape:window-y="-8"
     inkscape:window-maximized="1"
     inkscape:current-layer="g1" /><g
     inkscape:groupmode="layer"
     inkscape:label="Image"
     id="g1"
     transform="translate(-95.824113,-155.92432)"><path
       id="rect4431"
       style="mix-blend-mode:normal;fill:#cedccc;fill-opacity:1;stroke:none;stroke-width:3.1697;filter:url(#filter4435)"
       d="m 158.21083,232.25244 c -0.092,0.79601 -0.15234,1.60237 -0.15234,2.42383 0,11.49094 9.25125,20.74024 20.74219,20.74024 h 226.8125 c 11.49092,0 20.74218,-9.2493 20.74218,-20.74024 0,-0.82146 -0.0604,-1.62782 -0.15234,-2.42383 -10e-4,0.009 -0.003,0.0181 -0.004,0.0273 -0.29738,2.54158 -1.05001,4.93586 -2.17578,7.10742 -0.0168,0.0325 -0.0299,0.0672 -0.0469,0.0996 -0.23487,0.44721 -0.4959,0.87767 -0.76172,1.30469 -0.0731,0.1176 -0.13947,0.23946 -0.21485,0.35547 -0.24438,0.37557 -0.50783,0.73566 -0.77539,1.09375 -0.11775,0.15782 -0.23141,0.31837 -0.35351,0.47265 -0.25721,0.32453 -0.52882,0.63512 -0.80469,0.94336 -0.15398,0.17231 -0.30719,0.3447 -0.4668,0.51172 -0.25972,0.2714 -0.52865,0.53214 -0.80273,0.78906 -0.19913,0.18695 -0.39903,0.37178 -0.60547,0.55078 -0.26951,0.23336 -0.5447,0.45836 -0.82617,0.67774 -0.22751,0.17757 -0.45833,0.34947 -0.69336,0.51758 -0.27852,0.19895 -0.56098,0.39092 -0.84961,0.57617 -0.25935,0.16668 -0.52384,0.32522 -0.79102,0.48047 -0.28322,0.16437 -0.56777,0.32542 -0.85937,0.47656 -0.29586,0.15354 -0.59826,0.29411 -0.90234,0.43359 -0.27773,0.12726 -0.55366,0.25589 -0.8379,0.3711 -0.33442,0.13569 -0.67655,0.25454 -1.01953,0.37304 -0.27545,0.0951 -0.54747,0.1956 -0.82812,0.2793 -0.36767,0.10978 -0.74502,0.19547 -1.1211,0.28516 -0.26825,0.0639 -0.53243,0.13796 -0.80468,0.1914 -0.4499,0.0884 -0.90909,0.14809 -1.36914,0.20703 -0.20491,0.0262 -0.40456,0.0676 -0.61133,0.0879 -0.6791,0.0666 -1.36719,0.10351 -2.06445,0.10351 h -226.8125 c -0.69727,0 -1.38536,-0.0369 -2.06446,-0.10351 -0.20918,-0.0205 -0.41186,-0.0613 -0.61914,-0.0879 -0.45601,-0.0586 -0.9114,-0.11754 -1.35742,-0.20507 -0.27974,-0.0548 -0.55065,-0.13138 -0.82617,-0.19727 -0.36951,-0.0885 -0.74018,-0.17339 -1.10156,-0.28125 -0.28393,-0.0847 -0.55929,-0.18691 -0.8379,-0.2832 -0.33741,-0.11674 -0.67477,-0.23186 -1.0039,-0.36524 -0.29225,-0.11828 -0.57596,-0.24984 -0.86133,-0.38086 -0.2981,-0.13703 -0.59458,-0.27523 -0.88477,-0.42578 -0.29249,-0.15155 -0.57726,-0.31365 -0.86132,-0.47851 -0.26718,-0.15525 -0.53166,-0.31379 -0.79102,-0.48047 -0.28862,-0.18525 -0.57109,-0.37722 -0.84961,-0.57617 -0.23503,-0.16811 -0.46585,-0.34001 -0.69336,-0.51758 -0.28147,-0.21938 -0.55666,-0.44438 -0.82617,-0.67774 -0.20644,-0.179 -0.40634,-0.36383 -0.60547,-0.55078 -0.27408,-0.25692 -0.54301,-0.51766 -0.80273,-0.78906 -0.1596,-0.16702 -0.31282,-0.33941 -0.4668,-0.51172 -0.27587,-0.30824 -0.54748,-0.61883 -0.80469,-0.94336 -0.1221,-0.15428 -0.23576,-0.31483 -0.35351,-0.47265 -0.26756,-0.35809 -0.53101,-0.71818 -0.77539,-1.09375 -0.0754,-0.11601 -0.14174,-0.23787 -0.21485,-0.35547 -0.26582,-0.42702 -0.52685,-0.85748 -0.76172,-1.30469 -0.017,-0.0324 -0.03,-0.0671 -0.0469,-0.0996 -1.12577,-2.17156 -1.8784,-4.56584 -2.17578,-7.10742 -10e-4,-0.009 -0.003,-0.0181 -0.004,-0.0273 z"
       transform="matrix(0.97570444,0,0,1,8.9712761,5.3874802)" /><path
       id="path5444"
       style="mix-blend-mode:normal;fill:#cedccc;fill-opacity:1;stroke:none;stroke-width:3.1697;filter:url(#filter4435)"
       d="m 158.21083,232.25244 c -0.092,0.79601 -0.15234,1.60237 -0.15234,2.42383 0,11.49094 9.25125,20.74024 20.74219,20.74024 h 226.8125 c 11.49092,0 20.74218,-9.2493 20.74218,-20.74024 0,-0.82146 -0.0604,-1.62782 -0.15234,-2.42383 -10e-4,0.009 -0.003,0.0181 -0.004,0.0273 -0.29738,2.54158 -1.05001,4.93586 -2.17578,7.10742 -0.0168,0.0325 -0.0299,0.0672 -0.0469,0.0996 -0.23487,0.44721 -0.4959,0.87767 -0.76172,1.30469 -0.0731,0.1176 -0.13947,0.23946 -0.21485,0.35547 -0.24438,0.37557 -0.50783,0.73566 -0.77539,1.09375 -0.11775,0.15782 -0.23141,0.31837 -0.35351,0.47265 -0.25721,0.32453 -0.52882,0.63512 -0.80469,0.94336 -0.15398,0.17231 -0.30719,0.3447 -0.4668,0.51172 -0.25972,0.2714 -0.52865,0.53214 -0.80273,0.78906 -0.19913,0.18695 -0.39903,0.37178 -0.60547,0.55078 -0.26951,0.23336 -0.5447,0.45836 -0.82617,0.67774 -0.22751,0.17757 -0.45833,0.34947 -0.69336,0.51758 -0.27852,0.19895 -0.56098,0.39092 -0.84961,0.57617 -0.25935,0.16668 -0.52384,0.32522 -0.79102,0.48047 -0.28322,0.16437 -0.56777,0.32542 -0.85937,0.47656 -0.29586,0.15354 -0.59826,0.29411 -0.90234,0.43359 -0.27773,0.12726 -0.55366,0.25589 -0.8379,0.3711 -0.33442,0.13569 -0.67655,0.25454 -1.01953,0.37304 -0.27545,0.0951 -0.54747,0.1956 -0.82812,0.2793 -0.36767,0.10978 -0.74502,0.19547 -1.1211,0.28516 -0.26825,0.0639 -0.53243,0.13796 -0.80468,0.1914 -0.4499,0.0884 -0.90909,0.14809 -1.36914,0.20703 -0.20491,0.0262 -0.40456,0.0676 -0.61133,0.0879 -0.6791,0.0666 -1.36719,0.10351 -2.06445,0.10351 h -226.8125 c -0.69727,0 -1.38536,-0.0369 -2.06446,-0.10351 -0.20918,-0.0205 -0.41186,-0.0613 -0.61914,-0.0879 -0.45601,-0.0586 -0.9114,-0.11754 -1.35742,-0.20507 -0.27974,-0.0548 -0.55065,-0.13138 -0.82617,-0.19727 -0.36951,-0.0885 -0.74018,-0.17339 -1.10156,-0.28125 -0.28393,-0.0847 -0.55929,-0.18691 -0.8379,-0.2832 -0.33741,-0.11674 -0.67477,-0.23186 -1.0039,-0.36524 -0.29225,-0.11828 -0.57596,-0.24984 -0.86133,-0.38086 -0.2981,-0.13703 -0.59458,-0.27523 -0.88477,-0.42578 -0.29249,-0.15155 -0.57726,-0.31365 -0.86132,-0.47851 -0.26718,-0.15525 -0.53166,-0.31379 -0.79102,-0.48047 -0.28862,-0.18525 -0.57109,-0.37722 -0.84961,-0.57617 -0.23503,-0.16811 -0.46585,-0.34001 -0.69336,-0.51758 -0.28147,-0.21938 -0.55666,-0.44438 -0.82617,-0.67774 -0.20644,-0.179 -0.40634,-0.36383 -0.60547,-0.55078 -0.27408,-0.25692 -0.54301,-0.51766 -0.80273,-0.78906 -0.1596,-0.16702 -0.31282,-0.33941 -0.4668,-0.51172 -0.27587,-0.30824 -0.54748,-0.61883 -0.80469,-0.94336 -0.1221,-0.15428 -0.23576,-0.31483 -0.35351,-0.47265 -0.26756,-0.35809 -0.53101,-0.71818 -0.77539,-1.09375 -0.0754,-0.11601 -0.14174,-0.23787 -0.21485,-0.35547 -0.26582,-0.42702 -0.52685,-0.85748 -0.76172,-1.30469 -0.017,-0.0324 -0.03,-0.0671 -0.0469,-0.0996 -1.12577,-2.17156 -1.8784,-4.56584 -2.17578,-7.10742 -10e-4,-0.009 -0.003,-0.0181 -0.004,-0.0273 z"
       transform="matrix(0.97570444,0,0,1,4.149887,1.077496)" /><path
       id="path8438"
       style="mix-blend-mode:normal;fill:#cedccc;fill-opacity:1;stroke:none;stroke-width:3.1697;filter:url(#filter4435)"
       d="m 158.21083,232.25244 c -0.092,0.79601 -0.15234,1.60237 -0.15234,2.42383 0,11.49094 9.25125,20.74024 20.74219,20.74024 h 226.8125 c 11.49092,0 20.74218,-9.2493 20.74218,-20.74024 0,-0.82146 -0.0604,-1.62782 -0.15234,-2.42383 -10e-4,0.009 -0.003,0.0181 -0.004,0.0273 -0.29738,2.54158 -1.05001,4.93586 -2.17578,7.10742 -0.0168,0.0325 -0.0299,0.0672 -0.0469,0.0996 -0.23487,0.44721 -0.4959,0.87767 -0.76172,1.30469 -0.0731,0.1176 -0.13947,0.23946 -0.21485,0.35547 -0.24438,0.37557 -0.50783,0.73566 -0.77539,1.09375 -0.11775,0.15782 -0.23141,0.31837 -0.35351,0.47265 -0.25721,0.32453 -0.52882,0.63512 -0.80469,0.94336 -0.15398,0.17231 -0.30719,0.3447 -0.4668,0.51172 -0.25972,0.2714 -0.52865,0.53214 -0.80273,0.78906 -0.19913,0.18695 -0.39903,0.37178 -0.60547,0.55078 -0.26951,0.23336 -0.5447,0.45836 -0.82617,0.67774 -0.22751,0.17757 -0.45833,0.34947 -0.69336,0.51758 -0.27852,0.19895 -0.56098,0.39092 -0.84961,0.57617 -0.25935,0.16668 -0.52384,0.32522 -0.79102,0.48047 -0.28322,0.16437 -0.56777,0.32542 -0.85937,0.47656 -0.29586,0.15354 -0.59826,0.29411 -0.90234,0.43359 -0.27773,0.12726 -0.55366,0.25589 -0.8379,0.3711 -0.33442,0.13569 -0.67655,0.25454 -1.01953,0.37304 -0.27545,0.0951 -0.54747,0.1956 -0.82812,0.2793 -0.36767,0.10978 -0.74502,0.19547 -1.1211,0.28516 -0.26825,0.0639 -0.53243,0.13796 -0.80468,0.1914 -0.4499,0.0884 -0.90909,0.14809 -1.36914,0.20703 -0.20491,0.0262 -0.40456,0.0676 -0.61133,0.0879 -0.6791,0.0666 -1.36719,0.10351 -2.06445,0.10351 h -226.8125 c -0.69727,0 -1.38536,-0.0369 -2.06446,-0.10351 -0.20918,-0.0205 -0.41186,-0.0613 -0.61914,-0.0879 -0.45601,-0.0586 -0.9114,-0.11754 -1.35742,-0.20507 -0.27974,-0.0548 -0.55065,-0.13138 -0.82617,-0.19727 -0.36951,-0.0885 -0.74018,-0.17339 -1.10156,-0.28125 -0.28393,-0.0847 -0.55929,-0.18691 -0.8379,-0.2832 -0.33741,-0.11674 -0.67477,-0.23186 -1.0039,-0.36524 -0.29225,-0.11828 -0.57596,-0.24984 -0.86133,-0.38086 -0.2981,-0.13703 -0.59458,-0.27523 -0.88477,-0.42578 -0.29249,-0.15155 -0.57726,-0.31365 -0.86132,-0.47851 -0.26718,-0.15525 -0.53166,-0.31379 -0.79102,-0.48047 -0.28862,-0.18525 -0.57109,-0.37722 -0.84961,-0.57617 -0.23503,-0.16811 -0.46585,-0.34001 -0.69336,-0.51758 -0.28147,-0.21938 -0.55666,-0.44438 -0.82617,-0.67774 -0.20644,-0.179 -0.40634,-0.36383 -0.60547,-0.55078 -0.27408,-0.25692 -0.54301,-0.51766 -0.80273,-0.78906 -0.1596,-0.16702 -0.31282,-0.33941 -0.4668,-0.51172 -0.27587,-0.30824 -0.54748,-0.61883 -0.80469,-0.94336 -0.1221,-0.15428 -0.23576,-0.31483 -0.35351,-0.47265 -0.26756,-0.35809 -0.53101,-0.71818 -0.77539,-1.09375 -0.0754,-0.11601 -0.14174,-0.23787 -0.21485,-0.35547 -0.26582,-0.42702 -0.52685,-0.85748 -0.76172,-1.30469 -0.017,-0.0324 -0.03,-0.0671 -0.0469,-0.0996 -1.12577,-2.17156 -1.8784,-4.56584 -2.17578,-7.10742 -10e-4,-0.009 -0.003,-0.0181 -0.004,-0.0273 z"
       transform="matrix(0.97570444,0,0,1,4.149887,1.077496)" /><path
       id="path8440"
       style="mix-blend-mode:normal;fill:#cedccc;fill-opacity:1;stroke:none;stroke-width:3.1697;filter:url(#filter4435)"
       d="m 158.21083,232.25244 c -0.092,0.79601 -0.15234,1.60237 -0.15234,2.42383 0,11.49094 9.25125,20.74024 20.74219,20.74024 h 226.8125 c 11.49092,0 20.74218,-9.2493 20.74218,-20.74024 0,-0.82146 -0.0604,-1.62782 -0.15234,-2.42383 -10e-4,0.009 -0.003,0.0181 -0.004,0.0273 -0.29738,2.54158 -1.05001,4.93586 -2.17578,7.10742 -0.0168,0.0325 -0.0299,0.0672 -0.0469,0.0996 -0.23487,0.44721 -0.4959,0.87767 -0.76172,1.30469 -0.0731,0.1176 -0.13947,0.23946 -0.21485,0.35547 -0.24438,0.37557 -0.50783,0.73566 -0.77539,1.09375 -0.11775,0.15782 -0.23141,0.31837 -0.35351,0.47265 -0.25721,0.32453 -0.52882,0.63512 -0.80469,0.94336 -0.15398,0.17231 -0.30719,0.3447 -0.4668,0.51172 -0.25972,0.2714 -0.52865,0.53214 -0.80273,0.78906 -0.19913,0.18695 -0.39903,0.37178 -0.60547,0.55078 -0.26951,0.23336 -0.5447,0.45836 -0.82617,0.67774 -0.22751,0.17757 -0.45833,0.34947 -0.69336,0.51758 -0.27852,0.19895 -0.56098,0.39092 -0.84961,0.57617 -0.25935,0.16668 -0.52384,0.32522 -0.79102,0.48047 -0.28322,0.16437 -0.56777,0.32542 -0.85937,0.47656 -0.29586,0.15354 -0.59826,0.29411 -0.90234,0.43359 -0.27773,0.12726 -0.55366,0.25589 -0.8379,0.3711 -0.33442,0.13569 -0.67655,0.25454 -1.01953,0.37304 -0.27545,0.0951 -0.54747,0.1956 -0.82812,0.2793 -0.36767,0.10978 -0.74502,0.19547 -1.1211,0.28516 -0.26825,0.0639 -0.53243,0.13796 -0.80468,0.1914 -0.4499,0.0884 -0.90909,0.14809 -1.36914,0.20703 -0.20491,0.0262 -0.40456,0.0676 -0.61133,0.0879 -0.6791,0.0666 -1.36719,0.10351 -2.06445,0.10351 h -226.8125 c -0.69727,0 -1.38536,-0.0369 -2.06446,-0.10351 -0.20918,-0.0205 -0.41186,-0.0613 -0.61914,-0.0879 -0.45601,-0.0586 -0.9114,-0.11754 -1.35742,-0.20507 -0.27974,-0.0548 -0.55065,-0.13138 -0.82617,-0.19727 -0.36951,-0.0885 -0.74018,-0.17339 -1.10156,-0.28125 -0.28393,-0.0847 -0.55929,-0.18691 -0.8379,-0.2832 -0.33741,-0.11674 -0.67477,-0.23186 -1.0039,-0.36524 -0.29225,-0.11828 -0.57596,-0.24984 -0.86133,-0.38086 -0.2981,-0.13703 -0.59458,-0.27523 -0.88477,-0.42578 -0.29249,-0.15155 -0.57726,-0.31365 -0.86132,-0.47851 -0.26718,-0.15525 -0.53166,-0.31379 -0.79102,-0.48047 -0.28862,-0.18525 -0.57109,-0.37722 -0.84961,-0.57617 -0.23503,-0.16811 -0.46585,-0.34001 -0.69336,-0.51758 -0.28147,-0.21938 -0.55666,-0.44438 -0.82617,-0.67774 -0.20644,-0.179 -0.40634,-0.36383 -0.60547,-0.55078 -0.27408,-0.25692 -0.54301,-0.51766 -0.80273,-0.78906 -0.1596,-0.16702 -0.31282,-0.33941 -0.4668,-0.51172 -0.27587,-0.30824 -0.54748,-0.61883 -0.80469,-0.94336 -0.1221,-0.15428 -0.23576,-0.31483 -0.35351,-0.47265 -0.26756,-0.35809 -0.53101,-0.71818 -0.77539,-1.09375 -0.0754,-0.11601 -0.14174,-0.23787 -0.21485,-0.35547 -0.26582,-0.42702 -0.52685,-0.85748 -0.76172,-1.30469 -0.017,-0.0324 -0.03,-0.0671 -0.0469,-0.0996 -1.12577,-2.17156 -1.8784,-4.56584 -2.17578,-7.10742 -10e-4,-0.009 -0.003,-0.0181 -0.004,-0.0273 z"
       transform="matrix(0.97570444,0,0,1,4.149887,1.077496)" /><rect
       style="display:inline;fill:#212121;stroke:none;stroke-width:3.1697;fill-opacity:1"
       id="rect1773"
       width="268.29651"
       height="41.483601"
       x="157.65038"
       y="212.56766"
       ry="20.7418" /><path
       style="fill:#eafae8;fill-opacity:1;stroke-width:0.456814"
       d="m 424.30431,227.5196 c -0.15669,-0.40826 -0.28487,-1.30934 -0.28487,-2.00241 0,-2.23928 -2.74563,-6.92423 -5.91135,-10.08675 -4.15089,-4.14662 -12.76627,-9.41387 -13.48789,-8.24621 -0.14408,0.23313 0.15317,1.51608 0.66055,2.85101 0.50738,1.33494 0.92258,2.47855 0.92272,2.54136 1.3e-4,0.0628 -0.42443,0.1142 -0.94341,0.1142 -1.25236,0 -2.36973,-0.62961 -5.8544,-3.29892 -3.76222,-2.88191 -9.0398,-5.52064 -14.08663,-7.04315 -3.31314,-0.9995 -4.92642,-1.21292 -9.26506,-1.22567 -7.57329,-0.0222 -11.87976,1.54544 -21.11362,7.68604 l -3.52628,2.34502 -4.23956,-0.58155 c -5.14427,-0.70565 -20.84161,-2.55607 -32.29289,-3.80671 -5.07922,-0.55472 -8.80582,-1.17764 -9.40881,-1.57273 -0.95049,-0.6228 -2.38571,-3.28464 -1.98636,-3.68401 0.27655,-0.27656 5.5517,-1.03063 9.72876,-1.39071 4.80139,-0.4139 3.81125,-0.92552 -3.96788,-2.05026 -8.23037,-1.18999 -17.43324,-2.10672 -32.08578,-3.1962 -12.34563,-0.91796 -13.9406,-1.12208 -13.9406,-1.78413 0,-1.04966 3.89048,-3.23054 5.80169,-3.25224 1.1758,-0.0133 1.21291,-0.0646 0.4602,-0.6355 -0.95462,-0.72403 -5.2914,-1.40715 -14.77128,-2.32672 -9.15035,-0.88761 -12.15727,-0.84309 -15.93016,0.23586 -1.75713,0.50249 -3.84812,0.91363 -4.64665,0.91363 -1.57664,0 -10.84468,-3.16191 -10.44361,-3.56298 0.13488,-0.13488 2.42167,-1.21218 5.08174,-2.39399 4.74255,-2.10701 4.80532,-2.1546 3.23154,-2.44984 -2.94772,-0.553 -21.88995,1.34928 -34.09713,3.42421 -12.79297,2.17451 -24.95516,5.69851 -33.53909,9.71798 -2.48636,1.16426 -4.56811,2.11683 -4.62609,2.11683 -0.45355,0 -4.78607,-11.90322 -4.78607,-13.14932 0,-0.57939 3.83613,-4.38844 5.27271,-5.23549 0.33875,-0.19973 3.57224,1.07496 7.81663,3.08143 5.81792,2.75033 7.66265,3.42248 9.39772,3.42414 1.21086,0.001 8.83348,-1.69298 17.35894,-3.85805 24.28232,-6.1666 40.83594,-9.31415 60.65307,-11.53274 9.02999,-1.01094 37.69302,-1.15135 45.45299,-0.22266 20.29702,2.42907 36.95565,7.33289 50.65822,14.91234 6.46776,3.57758 9.89085,4.88971 19.69111,7.54796 19.90407,5.39883 27.05161,7.68108 34.97176,11.16673 14.57328,6.41368 20.62081,13.96548 19.17892,23.94944 -0.45978,3.1839 -0.67403,3.68083 -1.1038,2.56076 z m -65.80885,-29.98459 c 4.12974,-1.80325 7.50861,-3.43393 7.50861,-3.62373 0,-0.18981 -0.46253,-0.49125 -1.02784,-0.66989 -0.5653,-0.17863 -5.85864,-2.63229 -11.76296,-5.45257 -11.67598,-5.5772 -16.72448,-7.592 -24.43952,-9.75348 -5.01623,-1.40538 -14.79589,-3.47247 -15.06408,-3.18404 -0.84013,0.90363 -11.65954,16.0793 -11.65954,16.35411 0,0.20329 3.44324,1.01926 7.65164,1.81324 4.20839,0.79399 15.1548,2.85157 24.32534,4.57239 9.17052,1.72082 16.73805,3.14988 16.81672,3.17568 0.0786,0.0258 3.52185,-1.42847 7.65163,-3.23171 z m -63.46431,-7.43678 c 2.11357,-1.4804 12.50075,-14.81671 12.50075,-16.04996 0,-0.60434 -5.46076,-1.71353 -12.10556,-2.45888 -5.37284,-0.60267 -23.61986,-0.59973 -28.56286,0.005 -4.87968,0.59659 -9.4258,1.82277 -15.35977,4.14283 -5.19261,2.03021 -7.5221,3.51325 -6.4558,4.10999 0.35738,0.2 4.00433,0.78839 8.10434,1.30754 11.77993,1.49159 21.14656,3.92916 26.1986,6.81791 2.33081,1.33275 5.94295,2.17801 10.59372,2.47898 1.25624,0.0813 2.70085,0.18487 3.21026,0.23015 0.5094,0.0453 1.35375,-0.21714 1.87632,-0.58316 z m -126.857,36.84 c -3.34704,-1.35993 -4.93347,-2.81746 -6.47513,-5.949 -1.25249,-2.54418 -1.43721,-3.395 -1.44078,-6.63621 -0.007,-6.31791 2.57982,-10.26454 9.27365,-14.1488 7.00217,-4.06319 13.12495,-5.74665 22.19767,-6.10326 13.69977,-0.53848 28.52015,3.15108 48.53697,12.08335 2.57556,1.14931 4.60587,2.16662 4.51181,2.26068 -0.0941,0.0941 -1.68742,-0.42953 -3.54079,-1.16353 -13.61403,-5.39164 -25.88645,-7.59654 -42.19896,-7.58161 -12.07283,0.0111 -16.98628,0.77278 -22.8029,3.53508 -4.36009,2.0706 -6.27019,3.83675 -7.77435,7.18847 -1.15896,2.58249 -1.20976,2.94387 -0.7079,5.03585 1.31318,5.47392 5.39286,8.8587 12.32737,10.2276 2.959,0.58411 2.96454,0.58812 1.59885,1.1539 -0.75375,0.31227 -3.63167,0.65257 -6.3954,0.75623 -4.14333,0.1554 -5.39079,0.0398 -7.11011,-0.65875 z"
       id="path2485" /><g
       aria-label="CAR HIVE"
       id="text289"
       style="font-size:79.6396px;font-family:'Bauhaus 93';-inkscape-font-specification:'Bauhaus 93, ';letter-spacing:10px;fill:#eafae8;stroke-width:6.63664"
       transform="matrix(0.45681398,0,0,0.45681398,91.452185,112.27272)"><path
         d="m 285.2875,261.87723 16.52677,0.42776 c -1.08883,8.55503 -4.05717,11.54669 -8.90502,16.21307 -4.82193,4.66639 -11.12154,6.99958 -18.89885,6.99958 -7.90693,0 -14.5306,-2.64428 -19.87101,-7.93285 -5.31449,-5.31449 -7.97174,-11.89928 -7.97174,-19.75436 0,-7.90693 2.7091,-14.55652 8.12729,-19.94879 5.44411,-5.39226 12.14556,-8.08839 20.10433,-8.08839 7.82915,0 14.36209,2.64428 19.59881,7.93285 3.62941,3.65533 6.19592,6.0828 7.69953,12.61573 l -16.91564,1.12771 c -1.89248,-5.80705 -5.483,-6.04391 -10.77157,-6.04391 -3.37016,0 -6.15703,1.1666 -8.3606,3.49979 -2.17765,2.33319 -3.26647,5.30152 -3.26647,8.90501 0,3.47387 1.07586,6.35147 3.22758,8.63281 2.15173,2.25542 4.87378,3.38313 8.16617,3.38313 3.34425,0 6.00149,-0.99809 7.97174,-2.99426 1.99617,-1.99618 3.17573,-1.24178 3.53868,-4.97488 z"
         id="path289"
         sodipodi:nodetypes="cccscscscccscscscc" /><path
         d="m 345.67217,264.5578 -11.69258,6.99958 v 12.63812 h -15.78793 v -33.75351 c 0,-6.53293 1.77582,-11.60114 5.32745,-15.20463 3.57756,-3.62941 8.59392,-5.44411 15.04909,-5.44411 6.22184,0 10.82341,1.6462 13.80471,4.93859 2.9813,3.26647 4.47195,8.32171 4.47195,15.16574 v 34.29792 h -15.78793 v -33.24798 c 0,-2.07395 -0.24628,-3.51276 -0.73884,-4.31641 -0.49256,-0.80365 -1.37399,-1.20548 -2.64428,-1.20548 -2.46281,0 -3.69422,1.84063 -3.69422,5.52189 v 6.61071 z"
         id="path291"
         sodipodi:nodetypes="ccccscscsccsssscc" /><path
         d="m 392.19888,245.38674 v 38.80876 h -15.78793 v -53.08011 h 20.25988 c 6.16999,0 10.95304,1.52954 14.34913,4.58861 3.78495,3.42201 5.67743,7.76434 5.67743,13.02699 0,5.36634 -2.34615,9.89014 -7.03846,13.57139 l 9.09945,21.89312 h -16.56566 l -7.66065,-17.11008 -4.44467,-7.34533 5.68904,-6.30384 c 3.31831,0 4.97747,-1.42584 4.97747,-4.27751 0,-2.51467 -1.9184,-3.772 -5.7552,-3.772 z"
         id="path293"
         sodipodi:nodetypes="ccccscscccccsssc" /><path
         d="m 492.99609,257.09158 -13.25131,6.99958 v 20.10434 h -15.78793 v -53.08011 h 15.78793 v 18.97662 z m 9.61396,-25.97619 v 53.08011 h -15.78793 v -53.08011 z"
         id="path295"
         sodipodi:nodetypes="ccccccccccccc" /><path
         d="M 539.014,231.11539 V 284.1955 H 523.22607 V 231.11539 Z"
         id="path297" /><path
         d="m 597.77769,231.11539 -23.13749,56.11325 -22.98193,-56.11325 h 18.27666 l 4.86082,16.56566 5.36634,-16.56566 z"
         id="path299" /><path
         d="m 642.10703,257.67489 -12.86398,5.91075 c -1.27206,0.58449 -2.398,0.20739 -2.99426,0.62218 -0.57034,0.41479 -0.85551,1.11475 -0.85551,2.09987 0,1.11475 0.29813,1.85359 0.89439,2.21654 0.59626,0.33701 1.81471,0.50552 3.65534,0.50552 h 10.61602 v 15.16575 h -12.40481 c -5.83297,0 -10.29196,-1.38695 -13.37696,-4.16086 -3.085,-2.79983 -4.6275,-6.83107 -4.6275,-12.09371 v -20.80429 c 0,-5.08117 1.45176,-9.02168 4.35529,-11.82151 2.92945,-2.79983 7.03846,-4.19974 12.32703,-4.19974 h 13.72695 v 15.24352 h -10.07161 c -2.72206,0 -4.08309,0.88143 -4.08309,2.64428 0,1.03697 0.32405,1.76286 0.97216,2.17765 0.64811,0.38886 1.80175,0.58329 3.46091,0.58329 z"
         id="path301"
         sodipodi:nodetypes="cscscsccscsscsccsscsc" /></g></g></svg>
