<?xml version="1.0" encoding="UTF-8" standalone="no"?>
<!-- Created with Inkscape (http://www.inkscape.org/) -->

<svg
   version="1.1"
   id="svg1"
   width="153.20038"
   height="121.38561"
   viewBox="0 0 153.20038 121.38561"
   sodipodi:docname="modeLight.svg"
   inkscape:version="1.2.2 (732a01da63, 2022-12-09)"
   xml:space="preserve"
   xmlns:inkscape="http://www.inkscape.org/namespaces/inkscape"
   xmlns:sodipodi="http://sodipodi.sourceforge.net/DTD/sodipodi-0.dtd"
   xmlns="http://www.w3.org/2000/svg"
   xmlns:svg="http://www.w3.org/2000/svg"><defs
     id="defs1"><filter
       inkscape:collect="always"
       style="color-interpolation-filters:sRGB"
       id="filter1335"
       x="-0.75438551"
       y="-0.75292298"
       width="2.508771"
       height="2.505846"><feGaussianBlur
         inkscape:collect="always"
         stdDeviation="0.98438644"
         id="feGaussianBlur1337" /></filter><filter
       inkscape:collect="always"
       style="color-interpolation-filters:sRGB"
       id="filter1339"
       x="-0.46744158"
       y="-0.46653534"
       width="1.9348832"
       height="1.9330707"><feGaussianBlur
         inkscape:collect="always"
         stdDeviation="0.98438644"
         id="feGaussianBlur1341" /></filter><filter
       inkscape:collect="always"
       style="color-interpolation-filters:sRGB"
       id="filter1343"
       x="-0.75438551"
       y="-0.75292298"
       width="2.508771"
       height="2.505846"><feGaussianBlur
         inkscape:collect="always"
         stdDeviation="0.98438644"
         id="feGaussianBlur1345" /></filter><filter
       inkscape:collect="always"
       style="color-interpolation-filters:sRGB"
       id="filter1347"
       x="-0.46744158"
       y="-0.46653534"
       width="1.9348832"
       height="1.9330707"><feGaussianBlur
         inkscape:collect="always"
         stdDeviation="0.98438644"
         id="feGaussianBlur1349" /></filter><filter
       inkscape:collect="always"
       style="color-interpolation-filters:sRGB"
       id="filter5110"
       x="-0.86086954"
       y="-1.98"
       width="2.7217391"
       height="4.9599999"><feGaussianBlur
         inkscape:collect="always"
         stdDeviation="17.778685"
         id="feGaussianBlur5112" /></filter></defs><sodipodi:namedview
     id="namedview1"
     pagecolor="#ffffff"
     bordercolor="#cccccc"
     borderopacity="1"
     inkscape:showpageshadow="0"
     inkscape:pageopacity="1"
     inkscape:pagecheckerboard="0"
     inkscape:deskcolor="#d1d1d1"
     showgrid="false"
     inkscape:zoom="3.7123106"
     inkscape:cx="65.727259"
     inkscape:cy="42.561094"
     inkscape:window-width="1366"
     inkscape:window-height="705"
     inkscape:window-x="-8"
     inkscape:window-y="-8"
     inkscape:window-maximized="1"
     inkscape:current-layer="g1" /><g
     inkscape:groupmode="layer"
     inkscape:label="Image"
     id="g1"
     transform="translate(-221.87575,-144.31685)"><rect
       style="mix-blend-mode:normal;fill:#ffc100;fill-opacity:0.99607843;stroke:none;stroke-width:3.6;filter:url(#filter5110)"
       id="rect5108"
       width="49.564819"
       height="21.549921"
       x="273.69354"
       y="194.2347"
       transform="matrix(1.1356378,0,0,1.1356378,-40.484629,-27.807064)" /><ellipse
       style="fill:#ffc100;fill-opacity:0.99607843;stroke:none;stroke-width:0.350625;filter:url(#filter1347)"
       id="ellipse1327"
       cx="284.88223"
       cy="203.86746"
       rx="2.5270832"
       ry="2.531992"
       transform="matrix(1.6889846,0,0,1.6889846,-205.64533,-141.24849)" /><ellipse
       style="fill:#ffc100;fill-opacity:0.99607843;stroke:none;stroke-width:0.217258;filter:url(#filter1343)"
       id="ellipse1329"
       cx="291.42459"
       cy="205.02982"
       rx="1.5658622"
       ry="1.5689038"
       transform="matrix(1.6889846,0,0,1.6889846,-205.64533,-141.24849)" /><ellipse
       style="fill:#ffc100;fill-opacity:0.99607843;stroke:none;stroke-width:0.350625;filter:url(#filter1339)"
       id="ellipse1331"
       cx="-313.11069"
       cy="203.86746"
       rx="2.5270832"
       ry="2.531992"
       transform="matrix(-1.6889846,0,0,1.6889846,-205.64533,-141.24849)" /><ellipse
       style="fill:#ffc100;fill-opacity:0.99607843;stroke:none;stroke-width:0.217258;filter:url(#filter1335)"
       id="ellipse1333"
       cx="-306.56833"
       cy="205.02982"
       rx="1.5658622"
       ry="1.5689038"
       transform="matrix(-1.6889846,0,0,1.6889846,-205.64533,-141.24849)" /><ellipse
       style="fill:#ffc100;fill-opacity:0.99607843;stroke:none;stroke-width:0.5922"
       id="path1045"
       cx="275.51636"
       cy="203.08051"
       rx="4.2682047"
       ry="4.2764955" /><ellipse
       style="fill:#ffc100;fill-opacity:0.99607843;stroke:none;stroke-width:0.366945"
       id="ellipse1069"
       cx="286.56631"
       cy="205.0437"
       rx="2.644717"
       ry="2.6498544" /><path
       style="fill:#ffc100;stroke-width:0.0471164;fill-opacity:0.99607843"
       d="m 273.54696,212.057 c -2.00814,-0.20931 -3.98452,-1.23205 -5.30732,-2.74639 -1.1408,-1.30599 -1.84084,-2.91647 -2.01663,-4.6394 -0.0294,-0.28833 -0.0498,-1.73267 -0.0498,-3.53064 0,-2.97601 0.002,-3.0471 0.0971,-3.24322 0.0704,-0.14559 0.152,-0.2271 0.29758,-0.29757 0.19818,-0.0959 0.25279,-0.0971 4.72546,-0.0971 4.68272,0 5.85373,0.0307 7.29509,0.19163 4.1801,0.46656 8.09733,1.81681 11.15145,3.84386 3.60526,2.39282 5.74676,5.56628 6.06805,8.99222 0.0706,0.75207 0.0622,0.95527 -0.0483,1.18376 -0.0704,0.14559 -0.15201,0.2271 -0.29758,0.29756 l -0.20052,0.0971 -10.66878,-0.007 c -5.86783,-0.003 -10.83841,-0.024 -11.04572,-0.0456 z m 20.84889,-1.5148 c -2.9e-4,-0.24794 -0.13377,-0.93988 -0.27708,-1.43564 -0.45491,-1.57393 -1.37299,-3.06765 -2.71575,-4.41856 -0.43687,-0.43955 -1.4379,-1.30951 -1.46992,-1.27749 -0.007,0.007 0.0274,0.13191 0.0772,0.27673 0.20758,0.60335 0.23541,1.35419 0.0738,1.99362 -0.0388,0.15353 -0.16932,0.48069 -0.29006,0.72688 -0.18512,0.37745 -0.28659,0.51468 -0.64758,0.87565 -0.36073,0.36075 -0.49845,0.46263 -0.87567,0.64781 -0.61627,0.30255 -0.94365,0.38026 -1.60195,0.38026 -0.65831,0 -0.98569,-0.0777 -1.60197,-0.38026 -0.3772,-0.18518 -0.51492,-0.28706 -0.87567,-0.64781 -0.36073,-0.36073 -0.46261,-0.49845 -0.64779,-0.87565 -0.30255,-0.6163 -0.38026,-0.94366 -0.38026,-1.60197 0,-0.65832 0.0777,-0.98568 0.38026,-1.60197 0.18518,-0.3772 0.28706,-0.51492 0.64779,-0.87565 0.36099,-0.36099 0.49822,-0.46246 0.87567,-0.64759 0.44358,-0.21753 0.89457,-0.36141 1.13286,-0.36141 0.23897,0 0.18241,-0.0644 -0.21045,-0.23921 -1.31422,-0.58514 -2.82094,-1.08769 -4.31478,-1.43915 -0.6417,-0.151 -2.15023,-0.44188 -2.29141,-0.44188 -0.0353,0 0.0789,0.18844 0.25378,0.41879 0.77494,1.02099 1.10693,1.99977 1.11247,3.27985 0.003,0.71279 -0.0312,0.96902 -0.21415,1.60195 -0.41426,1.43314 -1.58589,2.75139 -2.99561,3.37051 -2.0464,0.89874 -4.41457,0.45241 -5.99728,-1.13032 -0.85522,-0.85522 -1.35292,-1.85341 -1.53327,-3.07517 -0.23758,-1.6096 0.27852,-3.22709 1.42473,-4.46512 l 0.26218,-0.28319 h -2.05463 -2.05465 l 2.9e-4,2.74453 c 3e-4,2.96098 0.0191,3.25963 0.25809,4.09238 0.64303,2.24101 2.44094,4.03889 4.68438,4.6843 0.89893,0.25861 0.43348,0.24841 11.5598,0.25334 l 10.30674,0.005 -1.5e-4,-0.15319 z m -17.95306,-3.75613 c 1.33685,-0.38593 2.40076,-1.45636 2.79094,-2.80806 0.1559,-0.54037 0.1559,-1.57344 0,-2.11381 -0.31459,-1.08975 -1.045,-1.98525 -2.03846,-2.49916 -0.65276,-0.33768 -1.02829,-0.42461 -1.83433,-0.42461 -0.80605,0 -1.18156,0.087 -1.83433,0.42461 -0.99347,0.51391 -1.72388,1.40941 -2.03846,2.49916 -0.15606,0.54037 -0.15606,1.57344 0,2.11381 0.43422,1.50426 1.66965,2.6231 3.20519,2.90273 0.38847,0.0708 1.35828,0.0182 1.74945,-0.0946 z m 10.83274,0.0512 c 0.39286,-0.12228 0.64823,-0.28165 0.93188,-0.58156 0.3895,-0.41185 0.58172,-0.89094 0.58172,-1.44991 0,-0.55895 -0.19222,-1.03807 -0.58172,-1.44991 -0.28365,-0.29991 -0.53902,-0.4593 -0.93188,-0.58157 -0.53608,-0.16687 -1.20063,-0.0858 -1.70106,0.20749 -0.25149,0.14745 -0.65438,0.56816 -0.77984,0.81445 -0.3242,0.63646 -0.3242,1.38262 0,2.01908 0.12549,0.24651 0.52842,0.6671 0.7804,0.81476 0.50041,0.29326 1.16408,0.37413 1.7005,0.20717 z"
       id="path799"
       sodipodi:nodetypes="sssssssssssscssscsssssssssssssssssssssssssssccccssscccssssssssssssssssssss" /><ellipse
       style="fill:#ffc100;fill-opacity:0.99607843;stroke:none;stroke-width:0.5922"
       id="ellipse1071"
       cx="-323.19379"
       cy="203.08051"
       rx="4.2682047"
       ry="4.2764955"
       transform="scale(-1,1)" /><ellipse
       style="fill:#ffc100;fill-opacity:0.99607843;stroke:none;stroke-width:0.366945"
       id="ellipse1073"
       cx="-312.14386"
       cy="205.0437"
       rx="2.644717"
       ry="2.6498544"
       transform="scale(-1,1)" /><path
       style="fill:#ffc100;stroke-width:0.0471164;fill-opacity:0.99607843"
       d="m 325.16317,212.057 c 2.00812,-0.20931 3.9845,-1.23205 5.30731,-2.74639 1.14079,-1.30599 1.84083,-2.91647 2.01663,-4.6394 0.0294,-0.28833 0.0498,-1.73267 0.0498,-3.53064 0,-2.97601 -0.002,-3.0471 -0.0971,-3.24322 -0.0704,-0.14559 -0.15201,-0.2271 -0.29756,-0.29757 -0.1982,-0.0959 -0.25281,-0.0971 -4.72548,-0.0971 -4.68271,0 -5.85371,0.0307 -7.29508,0.19163 -4.18011,0.46656 -8.09734,1.81681 -11.15147,3.84386 -3.60525,2.39282 -5.74673,5.56628 -6.06804,8.99222 -0.0706,0.75207 -0.0622,0.95527 0.0483,1.18376 0.0704,0.14559 0.15201,0.2271 0.29757,0.29756 l 0.20051,0.0971 10.66879,-0.007 c 5.86784,-0.003 10.8384,-0.024 11.04573,-0.0456 z m -20.84891,-1.5148 c 3e-4,-0.24794 0.13377,-0.93988 0.27708,-1.43564 0.45491,-1.57393 1.37299,-3.06765 2.71575,-4.41856 0.43687,-0.43955 1.4379,-1.30951 1.46992,-1.27749 0.007,0.007 -0.0274,0.13191 -0.0772,0.27673 -0.2076,0.60335 -0.23541,1.35419 -0.0738,1.99362 0.0389,0.15353 0.16932,0.48069 0.29005,0.72688 0.18511,0.37745 0.28659,0.51468 0.64757,0.87565 0.36075,0.36075 0.49845,0.46263 0.87567,0.64781 0.61628,0.30255 0.94366,0.38026 1.60195,0.38026 0.65832,0 0.9857,-0.0777 1.60197,-0.38026 0.37722,-0.18518 0.51492,-0.28706 0.87567,-0.64781 0.36075,-0.36073 0.46262,-0.49845 0.6478,-0.87565 0.30254,-0.6163 0.38025,-0.94366 0.38025,-1.60197 0,-0.65832 -0.0777,-0.98568 -0.38025,-1.60197 -0.18518,-0.3772 -0.28705,-0.51492 -0.6478,-0.87565 -0.36098,-0.36099 -0.4982,-0.46246 -0.87567,-0.64759 -0.44356,-0.21753 -0.89457,-0.36141 -1.13283,-0.36141 -0.23898,0 -0.18243,-0.0644 0.21044,-0.23921 1.3142,-0.58514 2.82093,-1.08769 4.31479,-1.43915 0.64169,-0.151 2.15022,-0.44188 2.29141,-0.44188 0.0353,0 -0.0789,0.18844 -0.25381,0.41879 -0.77494,1.02099 -1.10692,1.99977 -1.11245,3.27985 -0.003,0.71279 0.0312,0.96902 0.21413,1.60195 0.41426,1.43314 1.58589,2.75139 2.99562,3.37051 2.04639,0.89874 4.41457,0.45241 5.9973,-1.13032 0.85521,-0.85522 1.35291,-1.85341 1.53324,-3.07517 0.23759,-1.6096 -0.27851,-3.22709 -1.42471,-4.46512 l -0.2622,-0.28319 h 2.05465 2.05464 l -2.9e-4,2.74453 c -2.9e-4,2.96098 -0.0191,3.25963 -0.25808,4.09238 -0.64305,2.24101 -2.44094,4.03889 -4.68438,4.6843 -0.89895,0.25861 -0.4335,0.24841 -11.55982,0.25334 l -10.30672,0.005 1.3e-4,-0.15319 z m 17.95306,-3.75613 c -1.33685,-0.38593 -2.40074,-1.45636 -2.79093,-2.80806 -0.15606,-0.54037 -0.15606,-1.57344 0,-2.11381 0.31458,-1.08975 1.045,-1.98525 2.03846,-2.49916 0.65277,-0.33768 1.02828,-0.42461 1.83433,-0.42461 0.80604,0 1.18157,0.087 1.83433,0.42461 0.99346,0.51391 1.72388,1.40941 2.03847,2.49916 0.15606,0.54037 0.15606,1.57344 0,2.11381 -0.43424,1.50426 -1.66965,2.6231 -3.20521,2.90273 -0.38846,0.0708 -1.35826,0.0182 -1.74945,-0.0946 z m -10.83272,0.0512 c -0.39286,-0.12228 -0.64825,-0.28165 -0.9319,-0.58156 -0.3895,-0.41185 -0.58172,-0.89094 -0.58172,-1.44991 0,-0.55895 0.19222,-1.03807 0.58172,-1.44991 0.28365,-0.29991 0.53904,-0.4593 0.9319,-0.58157 0.53606,-0.16687 1.20061,-0.0858 1.70106,0.20749 0.25147,0.14745 0.65438,0.56816 0.77982,0.81445 0.3242,0.63646 0.3242,1.38262 0,2.01908 -0.12549,0.24651 -0.52842,0.6671 -0.78038,0.81476 -0.50043,0.29326 -1.1641,0.37413 -1.7005,0.20717 z"
       id="path1075"
       sodipodi:nodetypes="sssssssssssscssscsssssssssssssssssssssssssssccccssscccssssssssssssssssssss" /></g></svg>
