<?xml version="1.0" ?><!-- Uploaded to: SVG Repo, www.svgrepo.com, Generator: SVG Repo Mixer Tools -->
<svg width="800px" height="800px" viewBox="0 0 1000 1000" id="Layer_2" version="1.1" xml:space="preserve" xmlns="http://www.w3.org/2000/svg" xmlns:xlink="http://www.w3.org/1999/xlink"><path d="M840.951,595.952V367.538c0-13.388-10.851-24.239-24.239-24.239h-19.744v-6.689  c0-13.522-10.962-24.484-24.484-24.484H510.019c-13.522,0-24.484,10.962-24.484,24.484v6.689h-37.333  c-8.941,0-17.824,1.038-26.462,3.085c-8.638,2.037-17.041,5.073-25.042,9.079c-12.408,6.199-23.583,14.583-33.004,24.758  l-52.082,56.254c-9.49,10.244-21.222,18.157-34.277,23.122l-68.006,25.845c-12.82,4.867-23.553,14.024-30.389,25.904l-10.038,17.462  c-5.945,10.323-8.638,22.202-7.747,34.082l2.252,29.85c-1.792,0.999-3.428,2.253-4.877,3.702c-4.123,4.123-6.669,9.813-6.669,16.1  c0,12.575,10.195,22.77,22.77,22.77h50.926c4.485,29.753,30.164,52.562,61.17,52.562c31.006,0,56.685-22.809,61.17-52.562h316.879  c4.485,29.753,30.164,52.562,61.17,52.562c30.996,0,56.675-22.809,61.16-52.562h38.263c6.287,0,11.977-2.546,16.101-6.669  c4.123-4.123,6.669-9.813,6.669-16.1C848.14,605.99,845.378,600.095,840.951,595.952z M219.2,533.087l-3.153,24.141  c-0.744,5.729-5.622,10.019-11.4,10.019h-15.121c-3.183,0-6.052-1.293-8.138-3.369c-2.076-2.086-3.369-4.956-3.369-8.139  c0-2.086,0.568-4.123,1.635-5.915l14.857-24.748c2.448-4.093,7.178-6.248,11.879-5.406l3.418,0.607  C215.861,521.355,219.993,526.996,219.2,533.087z M322.943,635.312c-4.152,16.12-18.823,28.078-36.216,28.078  c-17.393,0-32.064-11.958-36.216-28.078c-0.754-2.977-1.166-6.091-1.166-9.304c0-0.49,0.01-0.979,0.029-1.469  c0.656-16.786,12.438-30.771,28.147-34.767c2.948-0.744,6.033-1.146,9.206-1.146s6.258,0.401,9.206,1.146  c15.709,3.996,27.49,17.981,28.147,34.767c0.02,0.49,0.029,0.979,0.029,1.469C324.108,629.221,323.697,632.335,322.943,635.312z   M446.811,530.649c-1.538,1.538-3.663,2.488-6.003,2.488h-26.11c-4.691,0-8.491-3.8-8.491-8.491c0-2.351,0.95-4.466,2.488-6.003  c1.538-1.538,3.663-2.488,6.003-2.488h26.11c4.691,0,8.491,3.8,8.491,8.491C449.299,526.996,448.349,529.111,446.811,530.649z   M472.48,378.771l-11.83,64.118c-2.253,12.242-9.147,23.152-19.235,30.438c-9.441,6.836-21.036,10.028-32.642,8.991l-101.51,0.147  c-2.478,0.01-3.898-1.959-3.898-3.927c0-1.469,0.793-2.938,2.517-3.594c3.525-1.342,6.699-3.487,9.265-6.258l66.508-71.826  c8.579-9.265,18.872-16.561,30.517-21.614c11.654-5.063,24.288-7.463,37-7.463h14.161  C469.15,367.783,473.538,373.052,472.48,378.771z M588.7,474.62c0,5.132-4.162,9.304-9.294,9.304h-70.102  c-5.142,0-9.304-4.172-9.304-9.304v-75.821c0-5.142,4.162-9.304,9.304-9.304h70.102c5.132,0,9.294,4.162,9.294,9.304V474.62z   M617.346,483.924c-5.132,0-9.294-4.172-9.294-9.304v-75.821c0-5.142,4.162-9.304,9.294-9.304h70.102  c5.142,0,9.304,4.162,9.304,9.304v75.821c0,5.132-4.162,9.304-9.304,9.304H617.346z M762.153,635.312  c-4.153,16.12-18.813,28.078-36.207,28.078c-17.403,0-32.064-11.958-36.217-28.078c-0.754-2.977-1.165-6.091-1.165-9.304  c0-0.49,0.01-0.979,0.029-1.469c0.656-16.786,12.428-30.771,28.147-34.767c2.948-0.744,6.033-1.146,9.206-1.146  c3.173,0,6.258,0.401,9.206,1.146c15.709,3.996,27.481,17.981,28.137,34.767c0.02,0.49,0.029,0.979,0.029,1.469  C763.318,629.221,762.907,632.335,762.153,635.312z M725.398,483.924c-5.132,0-9.294-4.172-9.294-9.304v-75.821  c0-5.142,4.162-9.304,9.294-9.304H795.5c5.142,0,9.304,4.162,9.304,9.304v75.821c0,5.132-4.162,9.304-9.304,9.304H725.398z   M821.453,557.865c0,5.181-4.201,9.382-9.382,9.382h-1.312c-5.181,0-9.382-4.201-9.382-9.382v-39.017  c0-5.181,4.201-9.382,9.382-9.382h1.312c5.181,0,9.382,4.202,9.382,9.382V557.865z" style="fill:#231F20;"/><path d="M286.727,613.766c-6.258,0-11.429,4.711-12.154,10.773c-0.059,0.48-0.088,0.969-0.088,1.469  c0,3.722,1.665,7.061,4.29,9.304c2.135,1.832,4.917,2.938,7.952,2.938c3.036,0,5.817-1.107,7.952-2.938  c2.625-2.243,4.29-5.582,4.29-9.304c0-0.5-0.029-0.989-0.088-1.469C298.155,618.477,292.985,613.766,286.727,613.766z" style="fill:#231F20;"/><path d="M725.946,613.766c-6.268,0-11.429,4.711-12.154,10.773c-0.059,0.48-0.088,0.969-0.088,1.469  c0,3.722,1.665,7.061,4.29,9.304c2.135,1.832,4.906,2.938,7.952,2.938c3.036,0,5.817-1.107,7.952-2.938  c2.625-2.243,4.29-5.582,4.29-9.304c0-0.5-0.029-0.989-0.088-1.469C737.375,618.477,732.204,613.766,725.946,613.766z" style="fill:#231F20;"/></svg>