<?xml version="1.0" encoding="UTF-8" standalone="no"?>
<!-- Created with Inkscape (http://www.inkscape.org/) -->

<svg
   version="1.1"
   id="svg1"
   width="388.92322"
   height="110.2466"
   viewBox="0 0 388.92321 110.2466"
   sodipodi:docname="logo-footer.svg"
   inkscape:version="1.2.2 (732a01da63, 2022-12-09)"
   xmlns:inkscape="http://www.inkscape.org/namespaces/inkscape"
   xmlns:sodipodi="http://sodipodi.sourceforge.net/DTD/sodipodi-0.dtd"
   xmlns="http://www.w3.org/2000/svg"
   xmlns:svg="http://www.w3.org/2000/svg">
  <defs
     id="defs1" />
  <sodipodi:namedview
     id="namedview1"
     pagecolor="#ffffff"
     bordercolor="#cccccc"
     borderopacity="1"
     inkscape:showpageshadow="0"
     inkscape:pageopacity="1"
     inkscape:pagecheckerboard="0"
     inkscape:deskcolor="#d1d1d1"
     showgrid="false"
     inkscape:zoom="1.3125"
     inkscape:cx="293.33333"
     inkscape:cy="44.190476"
     inkscape:window-width="1366"
     inkscape:window-height="705"
     inkscape:window-x="-8"
     inkscape:window-y="-8"
     inkscape:window-maximized="1"
     inkscape:current-layer="g1" />
  <g
     inkscape:groupmode="layer"
     inkscape:label="Image"
     id="g1"
     transform="translate(-95.824113,-155.92432)">
    <g
       id="g652"
       transform="matrix(0.45681398,0,0,0.45681398,91.452185,118.19895)">
      <path
         style="fill:#eafae8;fill-opacity:1"
         d="m 728.63822,252.28404 c -0.343,-0.8937 -0.6236,-2.86624 -0.6236,-4.38341 0,-4.90196 -6.0104,-15.15767 -12.9404,-22.08065 -9.0866,-9.07727 -27.9463,-20.60768 -29.526,-18.05157 -0.3154,0.51032 0.3353,3.3188 1.446,6.24107 1.1107,2.92227 2.0196,5.42572 2.0199,5.56322 3e-4,0.1375 -0.9291,0.25 -2.0652,0.25 -2.7415,0 -5.1875,-1.37827 -12.8157,-7.22159 -8.2358,-6.30872 -19.7888,-12.0851 -30.8367,-15.41799 -7.2527,-2.18798 -10.7843,-2.65516 -20.2819,-2.68307 -16.5785,-0.0487 -26.0057,3.38309 -46.2193,16.82531 l -7.7193,5.13342 -9.2807,-1.27305 c -11.2612,-1.54473 -45.62385,-5.59542 -70.69155,-8.33317 -11.1188,-1.21432 -19.2766,-2.57795 -20.5966,-3.44283 -2.0807,-1.36336 -5.2225,-7.19031 -4.3483,-8.06457 0.6054,-0.60541 12.1531,-2.25613 21.297,-3.04437 10.5106,-0.90606 8.3431,-2.02603 -8.686,-4.48818 -18.0169,-2.60496 -38.16265,-4.61176 -70.23816,-6.99672 -27.02551,-2.00947 -30.51702,-2.45632 -30.51702,-3.90559 0,-2.29777 8.51655,-7.07188 12.70034,-7.1194 2.5739,-0.0292 2.65514,-0.14142 1.00741,-1.39114 -2.08975,-1.58497 -11.58328,-3.08036 -32.33545,-5.09337 -20.0308,-1.94304 -26.61318,-1.84559 -34.8723,0.51631 -3.8465,1.1 -8.42384,2 -10.17187,2 -3.45138,0 -23.73981,-6.92166 -22.86185,-7.79962 0.29527,-0.29527 5.30121,-2.65355 11.12431,-5.24063 10.38179,-4.6124 10.5192,-4.71657 7.07409,-5.36288 -6.45279,-1.21055 -47.91874,2.95368 -74.64117,7.49586 -28.00478,4.76015 -54.62872,12.47446 -73.41958,21.27338 -5.44284,2.54864 -9.99993,4.63389 -10.12686,4.63389 -0.99286,0 -10.47707,-26.05703 -10.47707,-28.78483 0,-1.26834 8.39757,-9.60663 11.54236,-11.46088 0.74154,-0.43723 7.8199,2.35316 17.11118,6.74547 12.73587,6.02069 16.77413,7.49206 20.57233,7.4957 2.65066,0.003 19.33713,-3.70605 38,-8.44556 53.15582,-13.49914 89.39294,-20.38937 132.77413,-25.24603 19.76732,-2.21302 82.51283,-2.52039 99.49998,-0.48743 44.4317,5.31743 80.8987,16.05226 110.89465,32.64423 14.1584,7.83159 21.6518,10.70396 43.1053,16.52306 43.5715,11.81843 59.218,16.81446 76.5558,24.44481 31.902,14.04003 45.1405,30.57148 41.9841,52.42711 -1.0065,6.96979 -1.4755,8.05761 -2.4163,5.60569 z m -144.0605,-65.63851 c 9.0403,-3.94745 16.4369,-7.51712 16.4369,-7.93261 0,-0.4155 -1.0125,-1.07539 -2.25,-1.46644 -1.2375,-0.39104 -12.825,-5.76228 -25.75,-11.93609 -25.5596,-12.20891 -36.61115,-16.61945 -53.49995,-21.35109 -10.9809,-3.07648 -32.3893,-7.6015 -32.9764,-6.9701 -1.8391,1.97812 -25.5236,35.19879 -25.5236,35.80036 0,0.44503 7.5375,2.23124 16.75,3.96933 9.2125,1.7381 33.175,6.24229 53.25,10.0093 20.07495,3.76701 36.64085,6.89533 36.81305,6.95181 0.1721,0.0565 7.7096,-3.12703 16.75,-7.07447 z M 445.6496,170.36587 c 4.62676,-3.24071 27.36507,-32.43489 27.36507,-35.13456 0,-1.32295 -11.954,-3.75105 -26.49998,-5.38267 -11.76154,-1.31929 -51.70564,-1.31286 -62.52623,0.0101 -10.68198,1.30598 -20.63379,3.99018 -33.62369,9.06898 -11.36701,4.44428 -16.46645,7.69076 -14.13222,8.99707 0.78232,0.4378 8.76577,1.72583 17.741,2.86229 25.78714,3.26521 46.29141,8.60123 57.35069,14.92492 5.10233,2.9175 13.00956,4.76783 23.19045,5.42668 2.75,0.17796 5.91237,0.40468 7.02749,0.50381 1.11513,0.0991 2.96346,-0.47533 4.10742,-1.27658 z m -277.69948,80.64552 c -7.32691,-2.97699 -10.79974,-6.16764 -14.17454,-13.02282 -2.7418,-5.5694 -3.14617,-7.4319 -3.15398,-14.52716 -0.0152,-13.83036 5.64743,-22.46984 20.30071,-30.97278 15.32828,-8.89462 28.73151,-12.57984 48.59238,-13.36048 29.98981,-1.17877 62.43273,6.89795 106.25106,26.45136 5.63808,2.51592 10.08258,4.74288 9.87668,4.94878 -0.20591,0.20591 -3.69388,-0.94027 -7.75106,-2.54705 -29.80212,-11.8027 -56.66737,-16.6294 -92.37668,-16.5967 -26.42833,0.0242 -37.18423,1.69166 -49.91726,7.73855 -9.54455,4.53269 -13.7259,8.39893 -17.01863,15.7361 -2.53704,5.65327 -2.64824,6.44435 -1.54963,11.02385 2.87463,11.98283 11.80536,19.39236 26.98552,22.38898 6.47747,1.27867 6.4896,1.28743 3.5,2.52598 -1.65,0.68357 -7.95,1.42851 -14,1.65543 -9.07007,0.3402 -11.80085,0.0872 -15.56457,-1.44204 z"
         id="path2485" />
      <g
         aria-label="CAR HIVE"
         id="text289"
         style="font-size:79.6396px;font-family:'Bauhaus 93';-inkscape-font-specification:'Bauhaus 93, ';letter-spacing:10px;fill:#eafae8;stroke-width:6.63664">
        <path
           d="m 285.2875,261.87723 16.52677,0.42776 c -1.08883,8.55503 -4.05717,11.54669 -8.90502,16.21307 -4.82193,4.66639 -11.12154,6.99958 -18.89885,6.99958 -7.90693,0 -14.5306,-2.64428 -19.87101,-7.93285 -5.31449,-5.31449 -7.97174,-11.89928 -7.97174,-19.75436 0,-7.90693 2.7091,-14.55652 8.12729,-19.94879 5.44411,-5.39226 12.14556,-8.08839 20.10433,-8.08839 7.82915,0 14.36209,2.64428 19.59881,7.93285 3.62941,3.65533 6.19592,6.0828 7.69953,12.61573 l -16.91564,1.12771 c -1.89248,-5.80705 -5.483,-6.04391 -10.77157,-6.04391 -3.37016,0 -6.15703,1.1666 -8.3606,3.49979 -2.17765,2.33319 -3.26647,5.30152 -3.26647,8.90501 0,3.47387 1.07586,6.35147 3.22758,8.63281 2.15173,2.25542 4.87378,3.38313 8.16617,3.38313 3.34425,0 6.00149,-0.99809 7.97174,-2.99426 1.99617,-1.99618 3.17573,-1.24178 3.53868,-4.97488 z"
           id="path289"
           sodipodi:nodetypes="cccscscscccscscscc" />
        <path
           d="m 345.67217,264.5578 -11.69258,6.99958 v 12.63812 h -15.78793 v -33.75351 c 0,-6.53293 1.77582,-11.60114 5.32745,-15.20463 3.57756,-3.62941 8.59392,-5.44411 15.04909,-5.44411 6.22184,0 10.82341,1.6462 13.80471,4.93859 2.9813,3.26647 4.47195,8.32171 4.47195,15.16574 v 34.29792 h -15.78793 v -33.24798 c 0,-2.07395 -0.24628,-3.51276 -0.73884,-4.31641 -0.49256,-0.80365 -1.37399,-1.20548 -2.64428,-1.20548 -2.46281,0 -3.69422,1.84063 -3.69422,5.52189 v 6.61071 z"
           id="path291"
           sodipodi:nodetypes="ccccscscsccsssscc" />
        <path
           d="m 392.19888,245.38674 v 38.80876 h -15.78793 v -53.08011 h 20.25988 c 6.16999,0 10.95304,1.52954 14.34913,4.58861 3.78495,3.42201 5.67743,7.76434 5.67743,13.02699 0,5.36634 -2.34615,9.89014 -7.03846,13.57139 l 9.09945,21.89312 h -16.56566 l -7.66065,-17.11008 -4.44467,-7.34533 5.68904,-6.30384 c 3.31831,0 4.97747,-1.42584 4.97747,-4.27751 0,-2.51467 -1.9184,-3.772 -5.7552,-3.772 z"
           id="path293"
           sodipodi:nodetypes="ccccscscccccsssc" />
        <path
           d="m 492.99609,257.09158 -13.25131,6.99958 v 20.10434 h -15.78793 v -53.08011 h 15.78793 v 18.97662 z m 9.61396,-25.97619 v 53.08011 h -15.78793 v -53.08011 z"
           id="path295"
           sodipodi:nodetypes="ccccccccccccc" />
        <path
           d="M 539.014,231.11539 V 284.1955 H 523.22607 V 231.11539 Z"
           id="path297" />
        <path
           d="m 597.77769,231.11539 -23.13749,56.11325 -22.98193,-56.11325 h 18.27666 l 4.86082,16.56566 5.36634,-16.56566 z"
           id="path299" />
        <path
           d="m 642.10703,257.67489 -12.86398,5.91075 c -1.27206,0.58449 -2.398,0.20739 -2.99426,0.62218 -0.57034,0.41479 -0.85551,1.11475 -0.85551,2.09987 0,1.11475 0.29813,1.85359 0.89439,2.21654 0.59626,0.33701 1.81471,0.50552 3.65534,0.50552 h 10.61602 v 15.16575 h -12.40481 c -5.83297,0 -10.29196,-1.38695 -13.37696,-4.16086 -3.085,-2.79983 -4.6275,-6.83107 -4.6275,-12.09371 v -20.80429 c 0,-5.08117 1.45176,-9.02168 4.35529,-11.82151 2.92945,-2.79983 7.03846,-4.19974 12.32703,-4.19974 h 13.72695 v 15.24352 h -10.07161 c -2.72206,0 -4.08309,0.88143 -4.08309,2.64428 0,1.03697 0.32405,1.76286 0.97216,2.17765 0.64811,0.38886 1.80175,0.58329 3.46091,0.58329 z"
           id="path301"
           sodipodi:nodetypes="cscscsccscsscsccsscsc" />
      </g>
    </g>
  </g>
</svg>
