<?xml version="1.0" encoding="UTF-8" standalone="no"?>
<!-- Created with Inkscape (http://www.inkscape.org/) -->

<svg
   version="1.1"
   id="svg1"
   width="337.82709"
   height="267.67133"
   viewBox="0 0 337.82709 267.67132"
   sodipodi:docname="modeDark.svg"
   inkscape:version="1.2.2 (732a01da63, 2022-12-09)"
   xmlns:inkscape="http://www.inkscape.org/namespaces/inkscape"
   xmlns:sodipodi="http://sodipodi.sourceforge.net/DTD/sodipodi-0.dtd"
   xmlns="http://www.w3.org/2000/svg"
   xmlns:svg="http://www.w3.org/2000/svg">
  <defs
     id="defs1">
    <filter
       inkscape:collect="always"
       style="color-interpolation-filters:sRGB"
       id="filter2322"
       x="-0.19316297"
       y="-1.2214841"
       width="1.3863259"
       height="3.4429682">
      <feGaussianBlur
         inkscape:collect="always"
         stdDeviation="30.727894"
         id="feGaussianBlur2324" />
    </filter>
    <filter
       inkscape:collect="always"
       style="color-interpolation-filters:sRGB"
       id="filter5110"
       x="-0.86086954"
       y="-1.98"
       width="2.7217391"
       height="4.9599999">
      <feGaussianBlur
         inkscape:collect="always"
         stdDeviation="17.778685"
         id="feGaussianBlur5112" />
    </filter>
    <filter
       inkscape:collect="always"
       style="color-interpolation-filters:sRGB"
       id="filter1347"
       x="-0.46744158"
       y="-0.46653534"
       width="1.9348832"
       height="1.9330707">
      <feGaussianBlur
         inkscape:collect="always"
         stdDeviation="0.98438644"
         id="feGaussianBlur1349" />
    </filter>
    <filter
       inkscape:collect="always"
       style="color-interpolation-filters:sRGB"
       id="filter1343"
       x="-0.75438551"
       y="-0.75292298"
       width="2.508771"
       height="2.505846">
      <feGaussianBlur
         inkscape:collect="always"
         stdDeviation="0.98438644"
         id="feGaussianBlur1345" />
    </filter>
    <filter
       inkscape:collect="always"
       style="color-interpolation-filters:sRGB"
       id="filter1339"
       x="-0.46744158"
       y="-0.46653534"
       width="1.9348832"
       height="1.9330707">
      <feGaussianBlur
         inkscape:collect="always"
         stdDeviation="0.98438644"
         id="feGaussianBlur1341" />
    </filter>
    <filter
       inkscape:collect="always"
       style="color-interpolation-filters:sRGB"
       id="filter1335"
       x="-0.75438551"
       y="-0.75292298"
       width="2.508771"
       height="2.505846">
      <feGaussianBlur
         inkscape:collect="always"
         stdDeviation="0.98438644"
         id="feGaussianBlur1337" />
    </filter>
  </defs>
  <sodipodi:namedview
     id="namedview1"
     pagecolor="#ffffff"
     bordercolor="#cccccc"
     borderopacity="1"
     inkscape:showpageshadow="0"
     inkscape:pageopacity="1"
     inkscape:pagecheckerboard="0"
     inkscape:deskcolor="#d1d1d1"
     showgrid="false"
     inkscape:zoom="0.92807765"
     inkscape:cx="120.67956"
     inkscape:cy="213.34422"
     inkscape:window-width="1366"
     inkscape:window-height="705"
     inkscape:window-x="-8"
     inkscape:window-y="-8"
     inkscape:window-maximized="1"
     inkscape:current-layer="g1" />
  <g
     inkscape:groupmode="layer"
     inkscape:label="Image"
     id="g1"
     transform="translate(-130.67845,-45.135769)">
    <path
       style="fill:#241c1c;stroke-width:0.32"
       d="m -1003.4708,329.62897 c -13.6385,-1.42164 -27.0615,-8.36766 -36.0455,-18.65263 -7.748,-8.86982 -12.5024,-19.80765 -13.6964,-31.50929 -0.1998,-1.95825 -0.3381,-11.76764 -0.3381,-23.97896 0,-20.21203 0.014,-20.69492 0.6593,-22.02686 0.4786,-0.98871 1.0323,-1.54241 2.021,-2.02103 1.346,-0.65162 1.7169,-0.65924 32.0938,-0.65924 31.80356,0 39.75665,0.20893 49.54591,1.30155 28.38997,3.16875 54.99452,12.33919 75.73713,26.10619 24.48574,16.25132 39.03005,37.8045 41.21221,61.07225 0.47904,5.10783 0.42264,6.48794 -0.32857,8.03974 -0.47863,0.9887 -1.03233,1.5424 -2.02103,2.02103 l -1.3618,0.65923 -72.45897,-0.0426 c -39.85243,-0.0234 -73.61098,-0.16264 -75.01898,-0.30941 z m 141.59899,-10.28802 c -0.002,-1.684 -0.90863,-6.38344 -1.8818,-9.75042 -3.08962,-10.68954 -9.32493,-20.83448 -18.44448,-30.00946 -2.96717,-2.9852 -9.76576,-8.89372 -9.98325,-8.67624 -0.0501,0.0501 0.18576,0.89583 0.52415,1.87938 1.40986,4.09784 1.59883,9.19728 0.50175,13.54013 -0.26351,1.04314 -1.15,3.26461 -1.96997,4.93661 -1.25723,2.56363 -1.94643,3.49558 -4.39811,5.94726 -2.45006,2.45006 -3.38536,3.14197 -5.94727,4.39967 -4.18557,2.05478 -6.40899,2.58254 -10.88,2.58254 -4.47101,0 -6.69443,-0.52776 -10.88,-2.58254 -2.56191,-1.2577 -3.49721,-1.94961 -5.94726,-4.39967 -2.45006,-2.45005 -3.14197,-3.38535 -4.39966,-5.94726 -2.05479,-4.18557 -2.58255,-6.40899 -2.58255,-10.88 0,-4.47101 0.52776,-6.69443 2.58255,-10.88 1.25769,-2.56191 1.9496,-3.49721 4.39966,-5.94726 2.45169,-2.45169 3.38364,-3.14089 5.94726,-4.39811 3.01255,-1.47739 6.07564,-2.45462 7.6939,-2.45462 1.62304,0 1.23891,-0.43662 -1.42928,-1.62462 -8.92568,-3.97411 -19.15887,-7.38729 -29.30462,-9.77428 -4.35817,-1.02535 -14.60365,-3.0011 -15.56252,-3.0011 -0.23936,0 0.53629,1.27992 1.72366,2.84429 5.26319,6.93422 7.51793,13.58183 7.55548,22.2757 0.0209,4.84102 -0.21171,6.58127 -1.45431,10.88 -2.81355,9.73333 -10.77086,18.68645 -20.34528,22.89138 -13.89841,6.10396 -29.98224,3.07261 -40.73164,-7.67676 -5.8084,-5.80837 -9.1885,-12.58784 -10.4134,-20.88563 -1.6136,-10.93187 1.8916,-21.91727 9.6762,-30.32559 l 1.7808,-1.9234 h -13.9545 -13.9545 v 18.64001 c 0,20.10999 0.13,22.13825 1.7528,27.79406 4.3673,15.22027 16.5781,27.43083 31.8148,31.81432 6.1053,1.75644 2.9441,1.68716 78.51052,1.72062 l 69.99997,0.031 -9.6e-4,-1.04 z m -121.93135,-25.51043 c 9.0794,-2.62118 16.30507,-9.89117 18.9551,-19.0714 1.05943,-3.67008 1.05943,-10.68626 0,-14.35634 -2.1365,-7.40122 -7.09726,-13.48316 -13.84456,-16.97352 -4.43337,-2.29337 -6.98376,-2.88372 -12.45817,-2.88372 -5.47441,0 -8.0248,0.59035 -12.45821,2.88372 -6.7472,3.49036 -11.708,9.5723 -13.8445,16.97352 -1.0594,3.67008 -1.0594,10.68626 0,14.35634 2.9492,10.21648 11.3397,17.81521 21.76859,19.71438 2.63834,0.48045 9.22497,0.12402 11.88175,-0.64298 z m 73.5724,0.34755 c 2.66818,-0.83043 4.40262,-1.91285 6.32912,-3.94983 2.64532,-2.79704 3.95085,-6.051 3.95085,-9.84729 0,-3.79628 -1.30553,-7.05025 -3.95085,-9.84729 -1.9265,-2.03698 -3.66094,-3.1194 -6.32912,-3.94983 -3.64084,-1.13316 -8.15422,-0.58262 -11.55306,1.40923 -1.70799,1.00096 -4.44433,3.85872 -5.29633,5.53137 -2.20186,4.32268 -2.20186,9.39036 0,13.71304 0.85274,1.6741 3.58883,4.5307 5.30014,5.5336 3.39864,1.99173 7.90614,2.54087 11.54925,1.407 z"
       id="path1081"
       sodipodi:nodetypes="sssssssssssscssscsssssssssssssssssssssssssssccccssscccssssssssssssssssssss" />
    <g
       id="g1740"
       transform="translate(-1124.5714,99.047619)">
      <ellipse
         style="fill:#241c1c;fill-opacity:0.993319;stroke:none;stroke-width:4.02203"
         id="ellipse1077"
         cx="134.47615"
         cy="169.616"
         rx="28.988264"
         ry="29.044573" />
      <ellipse
         style="fill:#241c1c;fill-opacity:0.993319;stroke:none;stroke-width:2.49218"
         id="ellipse1079"
         cx="209.52376"
         cy="182.94934"
         rx="17.962063"
         ry="17.996954" />
      <ellipse
         style="fill:#241c1c;fill-opacity:0.993319;stroke:none;stroke-width:4.02203"
         id="ellipse1083"
         cx="-458.28577"
         cy="169.616"
         rx="28.988264"
         ry="29.044573"
         transform="scale(-1,1)" />
      <ellipse
         style="fill:#241c1c;fill-opacity:0.993319;stroke:none;stroke-width:2.49218"
         id="ellipse1085"
         cx="-383.23816"
         cy="182.94934"
         rx="17.962063"
         ry="17.996954"
         transform="scale(-1,1)" />
    </g>
    <path
       style="fill:#241c1c;stroke-width:0.32"
       d="m -652.91016,329.62897 c 13.63852,-1.42164 27.06148,-8.36766 36.04556,-18.65263 7.74794,-8.86982 12.50234,-19.80765 13.69631,-31.50929 0.19981,-1.95825 0.33813,-11.76764 0.33813,-23.97896 0,-20.21203 -0.0145,-20.69492 -0.65924,-22.02686 -0.47862,-0.98871 -1.03232,-1.54241 -2.02103,-2.02103 -1.34606,-0.65162 -1.71693,-0.65924 -32.09385,-0.65924 -31.80353,0 -39.75662,0.20893 -49.54588,1.30155 -28.38997,3.16875 -54.99452,12.33919 -75.73713,26.10619 -24.48574,16.25132 -39.03005,37.8045 -41.21221,61.07225 -0.47904,5.10783 -0.42264,6.48794 0.32857,8.03974 0.47863,0.9887 1.03233,1.5424 2.02103,2.02103 l 1.3618,0.65923 72.45897,-0.0426 c 39.85243,-0.0234 73.61097,-0.16264 75.01897,-0.30941 z m -141.59898,-10.28802 c 0.002,-1.684 0.90863,-6.38344 1.8818,-9.75042 3.08962,-10.68954 9.32493,-20.83448 18.44448,-30.00946 2.96717,-2.9852 9.76576,-8.89372 9.98325,-8.67624 0.0501,0.0501 -0.18576,0.89583 -0.52415,1.87938 -1.40986,4.09784 -1.59883,9.19728 -0.50175,13.54013 0.26351,1.04314 1.15,3.26461 1.96997,4.93661 1.25723,2.56363 1.94643,3.49558 4.39811,5.94726 2.45006,2.45006 3.38536,3.14197 5.94727,4.39967 4.18557,2.05478 6.40899,2.58254 10.88,2.58254 4.47101,0 6.69443,-0.52776 10.88,-2.58254 2.56191,-1.2577 3.49721,-1.94961 5.94726,-4.39967 2.45006,-2.45005 3.14197,-3.38535 4.39966,-5.94726 2.05479,-4.18557 2.58255,-6.40899 2.58255,-10.88 0,-4.47101 -0.52776,-6.69443 -2.58255,-10.88 -1.25769,-2.56191 -1.9496,-3.49721 -4.39966,-5.94726 -2.45169,-2.45169 -3.38364,-3.14089 -5.94726,-4.39811 -3.01255,-1.47739 -6.07564,-2.45462 -7.6939,-2.45462 -1.62304,0 -1.23891,-0.43662 1.42928,-1.62462 8.92568,-3.97411 19.15887,-7.38729 29.30462,-9.77428 4.35817,-1.02535 14.60365,-3.0011 15.56252,-3.0011 0.23936,0 -0.53629,1.27992 -1.72366,2.84429 -5.26319,6.93422 -7.51793,13.58183 -7.55548,22.2757 -0.0209,4.84102 0.21171,6.58127 1.45431,10.88 2.81355,9.73333 10.77086,18.68645 20.34528,22.89138 13.89841,6.10396 29.98229,3.07261 40.73165,-7.67676 5.80837,-5.80837 9.18854,-12.58784 10.41336,-20.88563 1.61362,-10.93187 -1.89157,-21.91727 -9.6762,-30.32559 l -1.78072,-1.9234 h 13.95447 13.95447 l -0.002,18.64001 c -0.002,20.10999 -0.12995,22.13825 -1.75282,27.79406 -4.36729,15.22027 -16.57804,27.43083 -31.81479,31.81432 -6.10526,1.75644 -2.94411,1.68716 -78.5105,1.72062 l -69.99997,0.031 9.6e-4,-1.04 z m 121.93135,-25.51043 c -9.0794,-2.62118 -16.30507,-9.89117 -18.9551,-19.0714 -1.05943,-3.67008 -1.05943,-10.68626 0,-14.35634 2.1365,-7.40122 7.09726,-13.48316 13.84456,-16.97352 4.43337,-2.29337 6.98376,-2.88372 12.45817,-2.88372 5.47441,0 8.0248,0.59035 12.45817,2.88372 6.74729,3.49036 11.70806,9.5723 13.84456,16.97352 1.05943,3.67008 1.05943,10.68626 0,14.35634 -2.94917,10.21648 -11.33969,17.81521 -21.76861,19.71438 -2.63834,0.48045 -9.22497,0.12402 -11.88175,-0.64298 z m -73.5724,0.34755 c -2.66818,-0.83043 -4.40262,-1.91285 -6.32912,-3.94983 -2.64532,-2.79704 -3.95085,-6.051 -3.95085,-9.84729 0,-3.79628 1.30553,-7.05025 3.95085,-9.84729 1.9265,-2.03698 3.66094,-3.1194 6.32912,-3.94983 3.64084,-1.13316 8.15422,-0.58262 11.55306,1.40923 1.70799,1.00096 4.44433,3.85872 5.29633,5.53137 2.20186,4.32268 2.20186,9.39036 0,13.71304 -0.85274,1.6741 -3.58883,4.5307 -5.30014,5.5336 -3.39864,1.99173 -7.90614,2.54087 -11.54925,1.407 z"
       id="path1087"
       sodipodi:nodetypes="sssssssssssscssscsssssssssssssssssssssssssssccccssscccssssssssssssssssssss" />
    <g
       id="g1750"
       style="fill:#241c1c;fill-opacity:0.993319;filter:url(#filter2322)"
       transform="translate(-1124.5714,99.047619)">
      <ellipse
         style="fill:#241c1c;fill-opacity:0.993319;stroke:none;stroke-width:4.02203"
         id="ellipse1742"
         cx="134.47615"
         cy="169.616"
         rx="28.988264"
         ry="29.044573" />
      <ellipse
         style="fill:#241c1c;fill-opacity:0.993319;stroke:none;stroke-width:2.49218"
         id="ellipse1744"
         cx="209.52376"
         cy="182.94934"
         rx="17.962063"
         ry="17.996954" />
      <ellipse
         style="fill:#241c1c;fill-opacity:0.993319;stroke:none;stroke-width:4.02203"
         id="ellipse1746"
         cx="-458.28577"
         cy="169.616"
         rx="28.988264"
         ry="29.044573"
         transform="scale(-1,1)" />
      <ellipse
         style="fill:#241c1c;fill-opacity:0.993319;stroke:none;stroke-width:2.49218"
         id="ellipse1748"
         cx="-383.23816"
         cy="182.94934"
         rx="17.962063"
         ry="17.996954"
         transform="scale(-1,1)" />
    </g>
    <rect
       style="mix-blend-mode:normal;fill:#060d17;fill-opacity:0.997571;stroke:none;stroke-width:3.6;filter:url(#filter5110)"
       id="rect5108"
       width="49.564819"
       height="21.549921"
       x="273.69354"
       y="194.2347"
       transform="matrix(2.5042315,0,0,2.5042315,-447.86088,-334.42021)" />
    <ellipse
       style="fill:#152d4f;fill-opacity:0.997571;stroke:none;stroke-width:0.350625;filter:url(#filter1347)"
       id="ellipse1327"
       cx="284.88223"
       cy="203.86746"
       rx="2.5270832"
       ry="2.531992"
       transform="matrix(3.7244344,0,0,3.7244344,-812.06202,-584.57355)" />
    <ellipse
       style="fill:#152d4f;fill-opacity:0.997571;stroke:none;stroke-width:0.217258;filter:url(#filter1343)"
       id="ellipse1329"
       cx="291.42459"
       cy="205.02982"
       rx="1.5658622"
       ry="1.5689038"
       transform="matrix(3.7244344,0,0,3.7244344,-812.06202,-584.57355)" />
    <ellipse
       style="fill:#152d4f;fill-opacity:0.997571;stroke:none;stroke-width:0.350625;filter:url(#filter1339)"
       id="ellipse1331"
       cx="-313.11069"
       cy="203.86746"
       rx="2.5270832"
       ry="2.531992"
       transform="matrix(-3.7244344,0,0,3.7244344,-812.06202,-584.57355)" />
    <ellipse
       style="fill:#152d4f;fill-opacity:0.997571;stroke:none;stroke-width:0.217258;filter:url(#filter1335)"
       id="ellipse1333"
       cx="-306.56833"
       cy="205.02982"
       rx="1.5658622"
       ry="1.5689038"
       transform="matrix(-3.7244344,0,0,3.7244344,-812.06202,-584.57355)" />
    <ellipse
       style="fill:#152d4f;fill-opacity:0.997571;stroke:none;stroke-width:1.30588"
       id="path1045"
       cx="248.96312"
       cy="174.71742"
       rx="9.4119558"
       ry="9.4302378" />
    <ellipse
       style="fill:#152d4f;fill-opacity:0.997571;stroke:none;stroke-width:0.809164"
       id="ellipse1069"
       cx="273.32974"
       cy="179.04654"
       rx="5.8319507"
       ry="5.8432794" />
    <path
       style="fill:#152d4f;fill-opacity:0.997571;stroke-width:0.103898"
       d="m 244.62033,194.51176 c -4.42821,-0.46155 -8.78639,-2.71683 -11.70334,-6.05615 -2.51561,-2.87988 -4.05929,-6.4312 -4.44693,-10.23049 -0.0648,-0.63581 -0.10982,-3.82077 -0.10982,-7.78553 0,-6.56249 0.004,-6.71926 0.21412,-7.15173 0.15524,-0.32104 0.33518,-0.50079 0.65621,-0.65618 0.43701,-0.21147 0.55743,-0.21412 10.42026,-0.21412 10.32602,0 12.90825,0.0677 16.08664,0.42257 9.21767,1.02883 17.85568,4.00631 24.59042,8.47622 7.95007,5.27648 12.67237,12.27439 13.38085,19.82903 0.15568,1.65842 0.13716,2.1065 -0.1065,2.61035 -0.15525,0.32104 -0.33521,0.50079 -0.65621,0.65616 l -0.44217,0.21412 -23.52607,-0.0155 c -12.93934,-0.007 -23.90013,-0.0529 -24.35728,-0.10056 z m 45.97457,-3.34033 c -5.9e-4,-0.54674 -0.29498,-2.07256 -0.611,-3.16578 -1.00314,-3.47072 -3.02763,-6.76457 -5.98859,-9.74351 -0.96335,-0.96927 -3.17076,-2.88764 -3.24137,-2.81703 -0.0155,0.0155 0.0604,0.29088 0.17024,0.61023 0.45774,1.33046 0.51911,2.98616 0.16274,4.39619 -0.0856,0.33855 -0.37338,1.05999 -0.63962,1.60286 -0.40822,0.83233 -0.63197,1.13495 -1.428,1.93093 -0.79546,0.7955 -1.09915,1.02016 -1.93097,1.42851 -1.35896,0.66716 -2.08087,0.83852 -3.53251,0.83852 -1.45166,0 -2.17358,-0.17134 -3.53256,-0.83852 -0.83177,-0.40835 -1.13546,-0.63301 -1.93097,-1.42851 -0.79545,-0.79546 -1.02011,-1.09915 -1.42846,-1.93093 -0.66716,-1.35902 -0.83852,-2.08089 -0.83852,-3.53255 0,-1.45168 0.17134,-2.17355 0.83852,-3.53255 0.40835,-0.83178 0.63301,-1.13547 1.42846,-1.93093 0.79604,-0.79603 1.09865,-1.01979 1.93097,-1.42802 0.97815,-0.47968 1.97265,-0.79696 2.49811,-0.79696 0.52696,0 0.40224,-0.14201 -0.46407,-0.52748 -2.89803,-1.29032 -6.22055,-2.39851 -9.51466,-3.17352 -1.41504,-0.33298 -4.74154,-0.97441 -5.05286,-0.97441 -0.0778,0 0.17398,0.41554 0.55961,0.92349 1.70885,2.25142 2.44093,4.40976 2.45315,7.23251 0.007,1.57179 -0.0688,2.13681 -0.47223,3.5325 -0.9135,3.16027 -3.4971,6.06718 -6.60572,7.43242 -4.51258,1.98184 -9.73471,0.99763 -13.22479,-2.4925 -1.88588,-1.88588 -2.98337,-4.08702 -3.38107,-6.78116 -0.52389,-3.54938 0.61418,-7.11616 3.14172,-9.84618 l 0.57814,-0.62447 h -4.53073 -4.53077 l 6.5e-4,6.05205 c 6.5e-4,6.52935 0.0421,7.18792 0.56912,9.02425 1.41797,4.94172 5.3826,8.90628 10.32968,10.3295 1.98226,0.57026 0.95588,0.54777 25.49089,0.55864 l 22.72772,0.011 -3.3e-4,-0.3378 z m -39.58887,-8.28277 c 2.94793,-0.85102 5.29399,-3.21146 6.15439,-6.19214 0.34378,-1.19158 0.34378,-3.46964 0,-4.66123 -0.69372,-2.40304 -2.30436,-4.37774 -4.49508,-5.51098 -1.43942,-0.74463 -2.26751,-0.93632 -4.04494,-0.93632 -1.77744,0 -2.60549,0.19185 -4.04494,0.93632 -2.19073,1.13324 -3.80138,3.10794 -4.49507,5.51098 -0.34413,1.19159 -0.34413,3.46965 0,4.66123 0.95751,3.31709 3.6818,5.78428 7.06787,6.4009 0.85663,0.15613 2.99518,0.0401 3.85777,-0.2086 z m 23.88762,0.11291 c 0.86631,-0.26965 1.42943,-0.62108 2.05492,-1.28242 0.8589,-0.90818 1.28277,-1.96464 1.28277,-3.19724 0,-1.23256 -0.42387,-2.28908 -1.28277,-3.19725 -0.62549,-0.66134 -1.18861,-1.01281 -2.05492,-1.28243 -1.18213,-0.36798 -2.64755,-0.18921 -3.75106,0.45754 -0.55457,0.32515 -1.443,1.25286 -1.71965,1.79597 -0.71491,1.40348 -0.71491,3.04886 0,4.45234 0.27672,0.54358 1.16523,1.47104 1.72088,1.79665 1.10348,0.64668 2.56695,0.82501 3.74983,0.45684 z"
       id="path799"
       sodipodi:nodetypes="sssssssssssscssscsssssssssssssssssssssssssssccccssscccssssssssssssssssssss" />
    <ellipse
       style="fill:#152d4f;fill-opacity:0.997571;stroke:none;stroke-width:1.30588"
       id="ellipse1071"
       cx="-354.09814"
       cy="174.71742"
       rx="9.4119558"
       ry="9.4302378"
       transform="scale(-1,1)" />
    <ellipse
       style="fill:#152d4f;fill-opacity:0.997571;stroke:none;stroke-width:0.809164"
       id="ellipse1073"
       cx="-329.73163"
       cy="179.04654"
       rx="5.8319507"
       ry="5.8432794"
       transform="scale(-1,1)" />
    <path
       style="fill:#152d4f;fill-opacity:0.997571;stroke-width:0.103898"
       d="m 358.44091,194.51176 c 4.42817,-0.46155 8.78635,-2.71683 11.70332,-6.05615 2.51559,-2.87988 4.05927,-6.4312 4.44693,-10.23049 0.0648,-0.63581 0.10982,-3.82077 0.10982,-7.78553 0,-6.56249 -0.004,-6.71926 -0.21412,-7.15173 -0.15524,-0.32104 -0.3352,-0.50079 -0.65616,-0.65618 -0.43706,-0.21147 -0.55748,-0.21412 -10.42031,-0.21412 -10.32599,0 -12.9082,0.0677 -16.08661,0.42257 -9.2177,1.02883 -17.85571,4.00631 -24.59047,8.47622 -7.95005,5.27648 -12.6723,12.27439 -13.38083,19.82903 -0.15568,1.65842 -0.13716,2.1065 0.10651,2.61035 0.15524,0.32104 0.3352,0.50079 0.65618,0.65616 l 0.44215,0.21412 23.5261,-0.0155 c 12.93936,-0.007 23.9001,-0.0529 24.35729,-0.10056 z m -45.97461,-3.34033 c 5.9e-4,-0.54674 0.29499,-2.07256 0.611,-3.16578 1.00314,-3.47072 3.02763,-6.76457 5.98859,-9.74351 0.96336,-0.96927 3.17076,-2.88764 3.24137,-2.81703 0.0155,0.0155 -0.0604,0.29088 -0.17024,0.61023 -0.45778,1.33046 -0.51911,2.98616 -0.16274,4.39619 0.0858,0.33855 0.37338,1.05999 0.6396,1.60286 0.40819,0.83233 0.63197,1.13495 1.42798,1.93093 0.7955,0.7955 1.09914,1.02016 1.93096,1.42851 1.35899,0.66716 2.0809,0.83852 3.53252,0.83852 1.45168,0 2.1736,-0.17134 3.53256,-0.83852 0.83182,-0.40835 1.13546,-0.63301 1.93096,-1.42851 0.7955,-0.79546 1.02014,-1.09915 1.42849,-1.93093 0.66713,-1.35902 0.8385,-2.08089 0.8385,-3.53255 0,-1.45168 -0.17134,-2.17355 -0.8385,-3.53255 -0.40835,-0.83178 -0.63299,-1.13547 -1.42849,-1.93093 -0.79601,-0.79603 -1.0986,-1.01979 -1.93096,-1.42802 -0.97812,-0.47968 -1.97265,-0.79696 -2.49805,-0.79696 -0.52698,0 -0.40228,-0.14201 0.46405,-0.52748 2.89798,-1.29032 6.22052,-2.39851 9.51468,-3.17352 1.41502,-0.33298 4.74152,-0.97441 5.05287,-0.97441 0.0778,0 -0.17399,0.41554 -0.55969,0.92349 -1.70884,2.25142 -2.4409,4.40976 -2.4531,7.23251 -0.007,1.57179 0.0688,2.13681 0.47219,3.5325 0.91349,3.16027 3.49709,6.06718 6.60573,7.43242 4.51257,1.98184 9.73472,0.99763 13.22484,-2.4925 1.88586,-1.88588 2.98335,-4.08702 3.381,-6.78116 0.52392,-3.54938 -0.61415,-7.11616 -3.14167,-9.84618 l -0.57819,-0.62447 h 4.53078 4.53075 l -5.9e-4,6.05205 c -5.9e-4,6.52935 -0.0421,7.18792 -0.5691,9.02425 -1.41801,4.94172 -5.38259,8.90628 -10.32967,10.3295 -1.98231,0.57026 -0.95593,0.54777 -25.49093,0.55864 l -22.72769,0.011 2.9e-4,-0.3378 z m 39.58888,-8.28277 c -2.94794,-0.85102 -5.29396,-3.21146 -6.15437,-6.19214 -0.34414,-1.19158 -0.34414,-3.46964 0,-4.66123 0.69368,-2.40304 2.30436,-4.37774 4.49507,-5.51098 1.43944,-0.74463 2.26749,-0.93632 4.04494,-0.93632 1.77743,0 2.60552,0.19185 4.04494,0.93632 2.19071,1.13324 3.80139,3.10794 4.4951,5.51098 0.34413,1.19159 0.34413,3.46965 0,4.66123 -0.95756,3.31709 -3.6818,5.78428 -7.06792,6.4009 -0.8566,0.15613 -2.99514,0.0401 -3.85776,-0.2086 z m -23.88758,0.11291 c -0.86632,-0.26965 -1.42948,-0.62108 -2.05497,-1.28242 -0.8589,-0.90818 -1.28277,-1.96464 -1.28277,-3.19724 0,-1.23256 0.42387,-2.28908 1.28277,-3.19725 0.62549,-0.66134 1.18865,-1.01281 2.05497,-1.28243 1.18208,-0.36798 2.6475,-0.18921 3.75106,0.45754 0.55452,0.32515 1.44299,1.25286 1.7196,1.79597 0.71491,1.40348 0.71491,3.04886 0,4.45234 -0.27672,0.54358 -1.16524,1.47104 -1.72084,1.79665 -1.10351,0.64668 -2.56699,0.82501 -3.74982,0.45684 z"
       id="path1075"
       sodipodi:nodetypes="sssssssssssscssscsssssssssssssssssssssssssssccccssscccssssssssssssssssssss" />
  </g>
</svg>
